<svg width="18" height="17" viewBox="0 0 18 17" fill="none" xmlns="http://www.w3.org/2000/svg">
<path d="M15.875 4.54166H2.0625C1.4757 4.54166 1 5.01735 1 5.60416V15.1667C1 15.7535 1.4757 16.2292 2.0625 16.2292H15.875C16.4618 16.2292 16.9375 15.7535 16.9375 15.1667V5.60416C16.9375 5.01735 16.4618 4.54166 15.875 4.54166Z" stroke="white" stroke-width="1.0625" stroke-linecap="round" stroke-linejoin="round"/>
<path d="M4.1875 8.26041H13.75" stroke="white" stroke-width="1.0625" stroke-linecap="round" stroke-linejoin="round"/>
<path d="M4.1875 12.5104H13.75" stroke="white" stroke-width="1.0625" stroke-linecap="round" stroke-linejoin="round"/>
<path fill-rule="evenodd" clip-rule="evenodd" d="M11.336 2.0802C11.1912 1.64653 10.7852 1.3541 10.328 1.35416H7.60946C7.15226 1.3541 6.74628 1.64653 6.6015 2.0802L5.78125 4.54166H12.1562L11.336 2.0802Z" stroke="white" stroke-width="1.0625" stroke-linecap="round" stroke-linejoin="round"/>
<path d="M3.125 4.54166V3.47916" stroke="white" stroke-width="1.0625" stroke-linecap="round" stroke-linejoin="round"/>
<path d="M14.8125 4.54166V3.47916" stroke="white" stroke-width="1.0625" stroke-linecap="round" stroke-linejoin="round"/>
</svg>
