<svg width="17" height="17" viewBox="0 0 17 17" fill="none" xmlns="http://www.w3.org/2000/svg">
<path fill-rule="evenodd" clip-rule="evenodd" d="M3.74098 3.7923e-05C3.72282 0.000160424 3.70468 0.00120728 3.68663 0.00317351C3.41255 0.0344016 3.2071 0.268815 3.21208 0.544618V1.0777H1.60865C0.728445 1.0777 0 1.80614 0 2.68635V14.4591C0 15.3393 0.728445 16.0667 1.60865 16.0667H3.74934C4.47911 16.0831 4.47911 14.98 3.74934 14.9964H1.60865C1.30289 14.9964 1.07035 14.7649 1.07035 14.4591V5.36117H14.989V14.4591C14.989 14.7649 14.7575 14.9964 14.4518 14.9964H5.89108C5.16132 14.98 5.16132 16.0831 5.89108 16.0667H14.4518C15.332 16.0667 16.0552 15.3393 16.0552 14.4591V2.68635C16.0552 1.80614 15.332 1.0777 14.4518 1.0777C13.722 1.06132 13.722 2.16443 14.4518 2.14805C14.7575 2.14805 14.989 2.38058 14.989 2.68635V4.29083H1.07035V2.68635C1.07035 2.38058 1.30289 2.14805 1.60865 2.14805H3.21208V2.68635C3.19589 3.41592 4.29861 3.41592 4.28243 2.68635V0.544618C4.28772 0.24292 4.04271 -0.00351405 3.74098 3.7923e-05ZM8.02341 3.7923e-05C8.00525 0.000160435 7.98711 0.00120728 7.96906 0.00317351C7.69498 0.0344015 7.48953 0.268815 7.49451 0.544618V1.0777H5.89108C5.16132 1.06132 5.16132 2.16443 5.89108 2.14805H7.49451V2.68635C7.47832 3.41592 8.58104 3.41592 8.56485 2.68635V0.544618C8.57015 0.24292 8.32513 -0.00351411 8.02341 3.7923e-05ZM12.3058 3.7923e-05C12.2877 0.000160435 12.2695 0.00120728 12.2515 0.00317351C11.9774 0.0344015 11.772 0.268815 11.7769 0.544618V1.0777H10.1693C9.43956 1.06132 9.43956 2.16443 10.1693 2.14805H11.7769V2.68635C11.7924 3.38426 12.8318 3.38426 12.8473 2.68635V0.544618C12.8526 0.24292 12.6076 -0.00351411 12.3058 3.7923e-05ZM3.7483 8.03703C3.45273 8.03703 3.21313 8.27664 3.21313 8.57221C3.21313 8.86777 3.45273 9.10738 3.7483 9.10738C4.04387 9.10738 4.28347 8.86777 4.28347 8.57221C4.28347 8.27664 4.04387 8.03703 3.7483 8.03703ZM8.02968 8.03703C7.73411 8.03703 7.49451 8.27664 7.49451 8.57221C7.49451 8.86777 7.73411 9.10738 8.02968 9.10738C8.32525 9.10738 8.56485 8.86777 8.56485 8.57221C8.56485 8.27664 8.32525 8.03703 8.02968 8.03703ZM12.3111 8.03703C12.0155 8.03703 11.7759 8.27664 11.7759 8.57221C11.7759 8.86777 12.0155 9.10738 12.3111 9.10738C12.6066 9.10738 12.8462 8.86777 12.8462 8.57221C12.8462 8.27664 12.6066 8.03703 12.3111 8.03703ZM3.7483 11.2481C3.45273 11.2481 3.21313 11.4877 3.21313 11.7832C3.21313 12.0788 3.45273 12.3184 3.7483 12.3184C4.04387 12.3184 4.28347 12.0788 4.28347 11.7832C4.28347 11.4877 4.04387 11.2481 3.7483 11.2481ZM8.02968 11.2481C7.73411 11.2481 7.49451 11.4877 7.49451 11.7832C7.49451 12.0788 7.73411 12.3184 8.02968 12.3184C8.32525 12.3184 8.56485 12.0788 8.56485 11.7832C8.56485 11.4877 8.32525 11.2481 8.02968 11.2481ZM12.3111 11.2481C12.0155 11.2481 11.7759 11.4877 11.7759 11.7832C11.7759 12.0788 12.0155 12.3184 12.3111 12.3184C12.6066 12.3184 12.8462 12.0788 12.8462 11.7832C12.8462 11.4877 12.6066 11.2481 12.3111 11.2481Z" fill="white"/>
</svg>
