<?xml version="1.0" encoding="UTF-8"?>
<svg width="17px" height="17px" viewBox="0 0 17 17" version="1.1" xmlns="http://www.w3.org/2000/svg" xmlns:xlink="http://www.w3.org/1999/xlink">
    <title>Shape</title>
    <g id="Page-1" stroke="none" stroke-width="1" fill="none" fill-rule="evenodd">
        <g id="login" transform="translate(-616.000000, -509.000000)" fill="#346EDF" fill-rule="nonzero">
            <path d="M630.313906,509 L618.686094,509 C617.204922,509 616,510.204922 616,511.686094 L616,523.313906 C616,524.795078 617.204922,526 618.686094,526 L630.313906,526 C631.795078,526 633,524.795078 633,523.313906 L633,511.686094 C633,510.204922 631.795078,509 630.313906,509 Z M631,523.132586 C631,523.610853 630.610853,524 630.132632,524 L618.867368,524 C618.389101,524 618,523.610853 618,523.132586 L618,511.867368 C618,511.389101 618.389147,511 618.867368,511 L630.132586,511 C630.610853,511 631,511.389147 631,511.867368 L631,523.132586 L631,523.132586 Z" id="Shape"></path>
        </g>
    </g>
</svg>