<?xml version="1.0" encoding="UTF-8"?>
<svg width="525px" height="430px" viewBox="0 0 525 430" version="1.1" xmlns="http://www.w3.org/2000/svg" xmlns:xlink="http://www.w3.org/1999/xlink">
    <title>Image</title>
    <defs>
        <polygon id="path-1" points="0.136426663 0.822300041 147.595349 0.822300041 147.595349 73.1275981 0.136426663 73.1275981"></polygon>
    </defs>
    <g id="Page-1" stroke="none" stroke-width="1" fill="none" fill-rule="evenodd">
        <g id="login" transform="translate(-20.000000, -148.000000)">
            <g id="Image" transform="translate(20.000000, 148.000000)">
                <path d="M210.469738,404.092561 C317.364292,393.219423 405.840704,314.869461 444.608611,215 C483.376518,115.130539 337.414702,30.0566028 232.28476,25.1825457 C127.154818,20.3084886 46,113.750596 46,220.182674 C46,326.614752 103.575183,414.9657 210.469738,404.092561 Z" id="Oval" fill="#ECECEC" transform="translate(248.500000, 215.000000) scale(-1, 1) translate(-248.500000, -215.000000) "></path>
                <g id="image">
                    <path d="M418.370783,298.562171 C418.458305,298.511271 419.003543,299.232148 419.810165,300.65141 C420.620335,302.065938 421.62802,304.214363 422.564742,306.9866 C424.484313,312.512136 425.689514,320.669049 424.975146,329.564593 C424.26669,338.458954 422.212289,346.266673 420.627431,351.824169 C419.005908,357.384032 417.812534,360.758776 417.606739,360.701958 C417.379655,360.639222 418.185094,357.147291 419.515665,351.532978 C420.811937,345.919848 422.661726,338.153558 423.354806,329.441488 C424.051434,320.731785 423.060306,312.804511 421.467169,307.323956 C419.920159,301.816176 418.115313,298.694746 418.370783,298.562171" id="Fill-1" fill="#FFFFFF"></path>
                    <path d="M423.846703,254.04728 C423.948418,254.002299 424.608381,255.210862 425.709502,257.439779 C426.809441,259.668696 428.355269,262.916783 430.183769,266.969789 C433.811201,275.075803 438.69351,286.4228 442.234603,299.596255 C443.975581,306.185942 445.161859,312.592155 445.762686,318.475169 C446.368243,324.357001 446.429745,329.701429 446.126966,334.161631 C445.833649,338.624199 445.27067,342.204907 444.72898,344.639789 C444.193203,347.079405 443.768603,348.393318 443.672802,348.372266 C443.372389,348.31401 444.698229,342.943539 444.979718,334.108364 C445.329806,325.290944 444.173097,313.040779 440.663938,300.015287 C437.163057,286.98506 432.48063,275.632144 429.128774,267.425516 C427.441019,263.319243 426.076149,259.995399 425.131148,257.697827 C424.208618,255.390785 423.743806,254.093445 423.846703,254.04728" id="Fill-3" fill="#FFFFFF"></path>
                    <path d="M221.192109,306.294488 C221.380163,306.496902 219.53747,308.255887 217.14599,311.52173 C216.55226,312.342038 215.907672,313.239286 215.30448,314.264375 C214.644517,315.251585 214.070893,316.384391 213.432219,317.553892 C212.244758,319.937874 211.117617,322.647375 210.248311,325.597168 C209.416851,328.557615 208.931932,331.451774 208.670549,334.103274 C208.591306,335.432575 208.475399,336.697956 208.508515,337.884028 C208.475399,339.073652 208.543997,340.178049 208.61023,341.188933 C208.899999,345.226551 209.526845,347.696944 209.259548,347.76915 C209.097514,347.824784 208.066174,345.438435 207.467713,341.30612 C207.324603,340.273929 207.187406,339.139939 207.161386,337.912437 C207.069133,336.686119 207.135366,335.374573 207.176761,333.993189 C207.363633,331.239891 207.822532,328.220259 208.687107,325.14736 C209.588347,322.083931 210.803011,319.283285 212.109927,316.851955 C212.807738,315.65878 213.447595,314.512953 214.178522,313.524559 C214.851495,312.498287 215.571777,311.610508 216.241202,310.812691 C218.94374,307.632075 221.085663,306.161913 221.192109,306.294488" id="Fill-5" fill="#FFFFFF"></path>
                    <path d="M225.517115,320.546298 C225.653129,320.7641 224.62652,321.55008 223.285304,323.053386 C222.606417,323.795569 221.890866,324.757921 221.187142,325.872972 C220.512986,327.006961 219.867215,328.307853 219.359824,329.742504 C218.874905,331.184257 218.582771,332.607071 218.416006,333.917432 C218.282357,335.228978 218.252789,336.426887 218.330849,337.431853 C218.460949,339.441784 218.7862,340.695328 218.54374,340.782922 C218.369879,340.856312 217.638952,339.709302 217.19188,337.584551 C216.958883,336.525135 216.863082,335.227794 216.923401,333.790776 C217.018019,332.358492 217.292412,330.787716 217.823458,329.212204 C218.375793,327.643795 219.128009,326.238737 219.935813,325.05148 C220.772003,323.88198 221.647223,322.920811 222.482231,322.230711 C224.142783,320.831571 225.424862,320.379396 225.517115,320.546298" id="Fill-7" fill="#FFFFFF"></path>
                    <path d="M165.477376,187.729724 C165.56135,187.656334 166.288729,188.372476 167.536509,189.738471 C168.170452,190.414367 168.91912,191.265451 169.711549,192.315397 C170.512257,193.355874 171.474999,194.511171 172.378605,195.899657 C172.8446,196.585022 173.33425,197.302347 173.842824,198.050449 C174.346667,198.803286 174.803201,199.627144 175.311774,200.459289 C176.352577,202.111742 177.28575,203.977261 178.300533,205.923272 C180.216555,209.870929 182.048603,214.351253 183.508092,219.207996 C184.920271,224.078942 185.81678,228.837437 186.352557,233.192289 C186.557169,235.378592 186.786619,237.452444 186.810273,239.404373 C186.83511,240.379746 186.898978,241.319608 186.884785,242.226327 C186.864679,243.130677 186.84339,243.998333 186.824466,244.826927 C186.819735,246.486482 186.638777,247.97795 186.532332,249.288312 C186.436531,250.599857 186.270948,251.720826 186.105366,252.632279 C185.800222,254.458736 185.579051,255.455416 185.467875,255.440203 C185.181654,255.402149 185.720979,251.355061 185.676035,244.81509 C185.66066,243.99715 185.646467,243.142514 185.631092,242.250001 C185.612168,241.358671 185.51755,240.433013 185.464327,239.475396 C185.383901,237.55661 185.107142,235.52182 184.867048,233.37813 C184.257942,229.108506 183.335413,224.450626 181.949254,219.669641 C180.515785,214.90286 178.761797,210.490007 176.953403,206.57431 C175.991844,204.644871 175.117807,202.786454 174.14442,201.131634 C173.66778,200.298305 173.244363,199.470895 172.777185,198.71214 C172.305275,197.955753 171.853473,197.228958 171.421776,196.535306 C167.907886,191.020424 165.256206,187.917933 165.477376,187.729724" id="Fill-9" fill="#FFFFFF"></path>
                    <path d="M183.878404,195.349234 C184.016784,195.226129 185.883131,196.973277 188.25687,200.340919 C189.451427,202.017045 190.709851,204.129959 191.935159,206.566024 C193.124986,209.018661 194.260406,211.80392 195.166377,214.822368 C196.045145,217.849102 196.603394,220.805998 196.936924,223.511948 C197.230241,226.223816 197.321311,228.681188 197.227875,230.738468 C197.063476,234.855394 196.444908,237.337624 196.262768,237.309456 C196.001384,237.277255 196.210728,234.764249 196.078262,230.737284 C196.025039,228.724985 195.818061,226.335084 195.452598,223.707259 C195.046921,221.084168 194.460287,218.224337 193.608722,215.284013 C192.727588,212.351975 191.66668,209.631821 190.583299,207.20996 C189.463254,204.803487 188.339661,202.685839 187.291762,200.965915 C185.216072,197.514231 183.67734,195.518504 183.878404,195.349234" id="Fill-11" fill="#FFFFFF"></path>
                    <polygon id="Fill-13" fill="#FF7B5B" points="119.44447 328.429893 118.029925 325.539285 78.6497549 355.652745 95.8300874 383.507696 135.030483 350.429054"></polygon>
                    <polygon id="Fill-15" fill="#D7D4D4" points="80.3000177 356.296681 95.3928322 382.418687 96.3579397 381.987818 82.9173987 357.563245"></polygon>
                    <path d="M118.666588,327.85769 L80.3000177,356.296207 C80.3000177,356.296207 80.460869,356.906999 81.4129664,357.283417 C82.3662466,357.659836 82.9173987,357.563956 82.9173987,357.563956 L123.253214,329.935093 C123.253214,329.935093 120.927968,329.39414 120.084681,328.764408 C119.240212,328.13231 118.666588,327.85769 118.666588,327.85769" id="Fill-17" fill="#F5F3F3"></path>
                    <path d="M124.239493,328.820634 L82.196998,356.925347 L95.8516131,382.824816 L98.0514904,386.411443 L140.095168,355.269343 C140.095168,355.269343 135.667028,348.654798 133.008251,344.660977 C130.349475,340.667156 125.130088,331.248414 124.846233,330.644724 C124.561195,330.041034 124.239493,328.820634 124.239493,328.820634" id="Fill-19" fill="#FF7B5B"></path>
                    <polygon id="Fill-21" fill="#775298" points="470.951991 134.79064 472.139452 132.362861 505.208576 157.650354 490.781638 181.041553 457.863903 153.263543"></polygon>
                    <polygon id="Fill-23" fill="#D7D4D4" points="503.823008 158.190834 491.150058 180.126075 490.338706 179.765045 501.625496 159.254985"></polygon>
                    <path d="M471.605686,134.309227 L503.823244,158.190479 C503.823244,158.190479 503.68723,158.703023 502.888888,159.019073 C502.08818,159.335122 501.62455,159.25463 501.62455,159.25463 L467.753535,136.054008 C467.753535,136.054008 469.706222,135.600649 470.414677,135.070349 C471.123132,134.54005 471.605686,134.309227 471.605686,134.309227" id="Fill-25" fill="#F5F3F3"></path>
                    <path d="M466.925624,135.119 L502.230107,158.71853 L490.764725,180.467929 L488.917301,183.479275 L453.610452,157.327676 C453.610452,157.327676 457.330137,151.772548 459.561948,148.419111 C461.796125,145.065674 466.178139,137.156156 466.415867,136.649531 C466.654779,136.144088 466.925624,135.119 466.925624,135.119" id="Fill-27" fill="#3399E6"></path>
                    <path d="M72.429306,89.2769389 C72.429306,89.2769389 69.9325635,91.0063322 71.1803434,93.889838 C72.429306,96.7733438 77.9029793,105.326797 85.2974058,105.037973 C85.6001846,105.02732 75.9822262,89.2769389 75.9822262,89.2769389 L72.429306,89.2769389 Z" id="Fill-29" fill="#FF7B5B"></path>
                    <path d="M61.1176786,246.962331 C61.1176786,246.962331 51.8710973,238.695334 48.9107247,240.176149 C45.2939371,241.986034 24.5926182,262.285395 25.4016053,271.848549 C25.7339524,275.765429 30.2898274,272.409625 38.4080845,263.981644 C46.528707,255.554847 56.7534058,259.166331 56.7534058,259.166331 L61.1176786,246.962331 Z" id="Fill-31" fill="#3399E6"></path>
                    <path d="M83.5831573,260.904366 L72.4205538,254.202227 C72.4205538,254.202227 43.486253,281.350505 48.0066461,284.970276 C51.4353797,287.715288 53.4507512,285.253181 61.570191,276.8252 C69.6884481,268.399587 79.9746488,273.244492 79.9746488,273.244492 L83.5831573,260.904366 Z" id="Fill-33" fill="#775298"></path>
                    <polygon id="Fill-35" fill="#F3A683" points="151.77084 171.587891 153.864271 201.33677 107.397184 189.221547"></polygon>
                    <path d="M107.397184,190.245097 C107.397184,190.245097 148.042875,192.809003 153.455047,191.001485 C153.455047,191.001485 161.39826,269.098802 147.264639,277.524415 C133.129836,285.952396 101.411389,273.61227 101.411389,273.61227 L109.975535,256.758675 L128.440312,255.554847 L128.440312,225.459143 L127.115655,225.759804 L107.397184,190.245097 Z" id="Fill-37" fill="#112129"></path>
                    <path d="M56.4468422,243.516447 C56.4468422,243.516447 46.2233262,247.730437 49.5314213,257.963569 C49.5314213,257.963569 84.4302283,285.350955 101.411862,279.02997 C110.92574,275.489508 121.145708,248.474988 128.29531,225.395104 L153.45552,191.001366 C153.45552,191.001366 141.589192,191.595586 137.630596,191.580198 C130.064673,191.551789 107.397658,190.244979 107.397658,190.244979 C107.397658,190.244979 95.5573499,252.245089 91.3385529,253.749578 C87.1197558,255.252884 56.4468422,243.516447 56.4468422,243.516447" id="Fill-39" fill="#22343D"></path>
                    <path d="M116.868839,112.483479 C116.868839,112.483479 141.228341,89.60956 145.437677,83.5892355 C149.647012,77.5700946 158.67124,57.4056768 169.794813,48.9788796 L164.382642,37.5419201 C164.382642,37.5419201 167.69192,35.7367697 169.794813,40.5508987 C169.794813,40.5508987 177.612657,24.9023162 179.417503,25.2017936 C181.223531,25.5024547 175.810177,37.241259 175.810177,37.241259 C175.810177,37.241259 183.329973,26.4056218 185.434049,26.7074666 C187.536942,27.0081277 180.020695,38.8877929 180.020695,38.8877929 C180.020695,38.8877929 188.439365,29.1151229 189.643384,30.3189511 C190.84622,31.5227793 183.027194,38.8877929 183.027194,38.8877929 C183.027194,38.8877929 191.447047,34.0499898 192.34947,35.6444407 C193.251893,37.241259 183.929617,41.4540658 183.929617,41.4540658 C183.929617,41.4540658 183.027194,48.3763737 177.314609,51.3853522 C177.314609,51.3853522 166.001799,81.9746616 155.7771,91.9059481 L122.931512,126.070047 L116.868839,112.483479 Z" id="Fill-41" fill="#FFC6B2"></path>
                    <path d="M87.7908367,124.338405 C87.7908367,124.338405 64.7098654,148.502562 58.6566545,152.658551 C52.6022609,156.813357 32.3716683,165.656818 23.8489177,176.712624 L12.4722401,171.188272 C12.4722401,171.188272 10.6378263,174.48134 15.4290645,176.632132 C15.4290645,176.632132 -0.281134864,184.310828 0.00390300821,186.120713 C0.286575421,187.929415 12.0653811,182.621681 12.0653811,182.621681 C12.0653811,182.621681 1.16889182,190.04588 1.4503815,192.154058 C1.73187119,194.262237 13.6703454,186.849876 13.6703454,186.849876 C13.6703454,186.849876 3.82766832,195.184344 5.01985992,196.398825 C6.20968606,197.61449 13.6431426,189.860038 13.6431426,189.860038 C13.6431426,189.860038 8.73008317,198.240671 10.3173065,199.158042 C11.9021644,200.075414 16.1990216,190.785695 16.1990216,190.785695 C16.1990216,190.785695 23.1227216,189.949999 26.184809,184.258745 C26.184809,184.258745 55.1344853,172.73064 65.1545718,162.591022 L101.18052,137.043113 L87.7908367,124.338405 Z" id="Fill-43" fill="#FFC6B2"></path>
                    <path d="M96.4436876,114.707543 L84.7701449,126.144502 L87.7305175,139.037419 C87.7305175,139.037419 99.2313816,166.671017 100.969994,173.412218 C103.672532,183.895111 99.3011627,199.878682 99.3011627,199.878682 C99.3011627,199.878682 118.798463,198.258189 136.539409,197.656867 C154.279173,197.054361 160.082828,191.334698 160.082828,191.334698 C160.082828,191.334698 144.701427,140.063691 134.081697,125.731389 C123.460783,111.401454 119.597988,106.915211 119.597988,106.915211 L103.961118,110.336119 L96.4436876,114.707543 Z" id="Fill-45" fill="#FFFFFF"></path>
                    <path d="M130.703584,124.041413 L142.866777,116.263286 C142.866777,116.263286 144.724845,107.930002 130.056631,98.1005141 L112.856192,108.887619 L130.703584,124.041413 Z" id="Fill-47" fill="#FFFFFF"></path>
                    <path d="M87.2301045,125.240151 C80.5618741,126.176462 68.3762094,143.090426 67.0172529,143.058466 C67.0172529,143.058466 75.5932264,157.065249 82.3868261,157.519792 C82.3868261,157.519792 112.282686,121.723363 87.2301045,125.240151" id="Fill-49" fill="#FFFFFF"></path>
                    <path d="M110.768674,114.234771 C110.768674,114.234771 101.076204,106.986944 101.412099,104.09752 C101.497255,103.369541 102.840836,102.188203 103.189742,101.13944 C105.069099,95.4967178 96.0082065,80.957267 90.4410975,77.8926543 C86.0614492,75.4826305 87.9810196,75.2695636 78.7640066,80.7513023 C69.5469936,86.233041 74.7983137,95.7121521 78.9142133,100.615059 C82.8053942,105.249265 87.2619199,107.234338 91.2713738,107.569327 L96.9721313,120.242075 L110.768674,114.234771 Z" id="Fill-51" fill="#FFC6B2"></path>
                    <path d="M93.2795307,124.295673 C91.4462995,119.795226 94.9176114,114.126462 101.033507,111.630028 C107.151768,109.13241 113.594097,110.756453 115.430876,115.254533 C117.262925,119.753796 111.107999,126.517488 107.672169,127.920178 C104.236339,129.322869 95.1115791,128.793753 93.2795307,124.295673" id="Fill-53" fill="#FFC6B2"></path>
                    <path d="M78.9146864,100.615177 C78.9146864,100.615177 75.7709907,100.441173 75.4220854,102.537515 C75.0719974,104.63504 81.1843448,104.63504 83.4551859,103.061896 L78.9146864,100.615177 Z" id="Fill-55" fill="#FFC6B2"></path>
                    <path d="M80.4866525,102.537633 C79.889374,98.7485927 75.8550828,95.9313743 76.0561468,92.2393978 C77.98991,92.254786 79.2317762,89.857783 78.3518253,87.8087893 C78.0052855,87.0038698 77.4186515,86.3149534 77.0437262,85.5206872 C76.6699836,84.7276048 76.5706343,83.6883116 77.1442582,83.2396873 C77.416286,83.0278041 77.784115,82.9911092 78.1365685,82.9555981 C81.0035054,82.6608555 85.9153821,83.5214092 88.5540522,82.542485 C91.0661702,81.610909 93.7580631,79.7986564 93.4966799,76.7186555 C93.268413,74.0363795 90.9017708,71.8619131 88.7279135,70.2189303 C87.482499,69.276701 83.9236652,66.8134105 82.5812669,67.0371308 C80.5315962,67.3780379 80.0348497,70.1147643 79.8870085,72.4052338 C78.45354,71.039238 76.3388192,71.2582235 75.0922221,72.3697226 C73.8456249,73.4812218 73.2554427,75.2473099 72.7125698,76.9518454 C72.1685141,78.6575646 71.5925247,80.4283875 70.3624858,81.5611934 C69.2164206,82.6170584 67.4032959,83.4160594 67.6410246,85.2117402 C67.923697,87.3518791 70.7173047,88.1130016 72.0088456,89.938275 C71.6906913,89.4908344 71.4210289,92.3482987 71.604352,92.8324341 C72.1555041,94.2919426 73.5310188,95.2578461 74.5256945,96.3740801 C76.6439635,98.7533275 77.6800348,101.149147 80.4866525,102.537633" id="Fill-57" fill="#FF7B5B"></path>
                    <path d="M98.0485336,93.8736212 L90.8859222,97.5809859 C90.8859222,97.5809859 99.4890985,103.830949 98.0485336,93.8736212" id="Fill-59" fill="#FFFFFF"></path>
                    <path d="M88.1945023,95.3434279 C88.5859859,96.0867948 88.0064483,97.1615991 86.900596,97.7439821 C85.7947437,98.326365 84.5812629,98.1961574 84.1897794,97.4527906 C83.7994786,96.7094237 84.3778334,95.6358031 85.4836857,95.0522365 C86.5907208,94.4698535 87.8030188,94.6000611 88.1945023,95.3434279" id="Fill-61" fill="#FFB2A0"></path>
                    <path d="M98.6531451,88.1932568 C99.0446286,88.9366236 98.465091,90.0114279 97.3592387,90.5938109 C96.2533864,91.1761939 95.0399056,91.0459863 94.6484221,90.3026194 C94.2581213,89.5592526 94.8364761,88.4844483 95.9423284,87.9020653 C97.0493635,87.3196824 98.2616615,87.4498899 98.6531451,88.1932568" id="Fill-63" fill="#FFB2A0"></path>
                    <path d="M93.0485435,93.6107203 C93.0154271,93.5692906 93.1490756,93.3929185 93.4589508,93.1691983 C93.7546332,92.9407432 94.2691207,92.6945325 94.6511424,92.2826031 C95.0296159,91.8836944 95.1656298,91.0515497 94.5860922,90.9343629 C93.9840828,90.7295819 93.300465,91.4208657 92.5163152,92.0778221 C92.3223475,92.238806 92.1307453,92.3986062 91.9403258,92.556039 C91.7629163,92.7193903 91.3891737,92.9584987 91.0012383,92.9099668 C90.2620322,92.7904126 89.9474261,92.2968075 89.663571,91.9665538 C89.0958607,91.2373914 88.7457727,90.4739016 88.551805,89.8133941 C88.1674178,88.4781746 88.3400964,87.6164373 88.4323493,87.6234959 C88.5612668,87.617621 88.6038451,88.4462146 89.0923125,89.6204501 C89.3383203,90.2040168 89.7061492,90.8668917 90.2419258,91.4930717 C90.5033091,91.8103047 90.832108,92.106231 91.0662885,92.1157007 C91.164455,92.1204355 91.2413325,92.0872917 91.4258383,91.9322264 C91.6138923,91.7747936 91.8031291,91.6149934 91.9947313,91.4540095 C92.3897631,91.1344091 92.731572,90.8112575 93.1833747,90.5105964 C93.6221675,90.2146701 94.2478315,90.0276447 94.8084454,90.2182212 C95.4069067,90.375654 95.7581774,91.0740401 95.6540972,91.5593592 C95.5866816,92.054148 95.3406738,92.4187292 95.0615496,92.6850628 C94.4713674,93.1786679 93.94387,93.2982221 93.6115229,93.447369 C93.2708967,93.5763929 93.0840254,93.6568848 93.0485435,93.6107203" id="Fill-65" fill="#FF7B5B"></path>
                    <path d="M91.2714921,107.569445 C91.2714921,107.569445 95.8403771,107.595487 98.3193787,106.067323 C98.3193787,106.067323 96.2223989,108.645433 92.0260737,109.313043 L91.2714921,107.569445 Z" id="Fill-67" fill="#FFA192"></path>
                    <path d="M93.2529192,87.0632918 C93.2115237,87.2893795 92.5728496,87.3592181 91.8975109,87.6575118 C91.2127104,87.9344988 90.7183294,88.3452445 90.5279099,88.2174044 C90.3327595,88.114422 90.6556447,87.2976654 91.5805394,86.9082264 C92.5042513,86.51642 93.3132385,86.8502249 93.2529192,87.0632918" id="Fill-69" fill="#22343D"></path>
                    <path d="M84.2993002,92.941335 C84.1266216,92.8134949 84.3974667,92.0772302 85.0550645,91.3397819 C85.7209413,90.5869454 86.571324,90.3359999 86.6612115,90.5466994 C86.7558299,90.7514804 86.2377942,91.2285136 85.6547085,91.8902048 C85.0621608,92.5495286 84.4861715,93.0810122 84.2993002,92.941335" id="Fill-71" fill="#22343D"></path>
                    <path d="M80.8284614,91.8050964 C80.458267,91.5304768 80.1696809,90.3550576 81.5865912,88.77126 C83.0165115,87.1519513 84.6143794,87.4372243 84.8059816,87.8870323 C85.0117766,88.3285543 84.4795482,88.9571017 83.2246719,90.3810991 C81.9508719,91.8003616 81.2294068,92.1057575 80.8284614,91.8050964" id="Fill-73" fill="#FF7B5B"></path>
                    <path d="M88.349913,85.5663782 C88.1453008,85.1828578 88.3712022,84.0666238 90.2138951,83.2889295 C92.0826082,82.4851937 93.3280226,83.3717888 93.3102816,83.8322501 C93.3067335,84.2903441 92.6030092,84.6111282 90.9613803,85.3189839 C89.3079241,86.0138188 88.5710835,85.9842262 88.349913,85.5663782" id="Fill-75" fill="#FF7B5B"></path>
                    <path d="M481.385205,96.669888 C481.505843,96.7894422 479.521223,99.0242776 475.402958,101.457975 C471.33555,103.889306 464.935799,106.29933 457.574489,106.35378 C450.213179,106.408231 443.777947,104.092903 439.675057,101.721942 C435.522493,99.3497965 433.504756,97.1433701 433.623029,97.0214484 C433.794525,96.8048304 436.051173,98.6656149 440.209651,100.702772 C444.327916,102.748214 450.534882,104.778268 457.561479,104.727369 C464.590442,104.674102 470.765474,102.552903 474.854171,100.447091 C478.980715,98.3483819 481.211344,96.4544536 481.385205,96.669888" id="Fill-77" fill="#775298"></path>
                    <path d="M436.476128,93.2939608 C436.363769,93.5413552 434.166257,92.6287185 430.464313,91.8024923 C428.619254,91.3668888 426.380347,91.0307165 423.887152,90.7205857 C421.384496,90.4435987 418.618091,90.2234295 415.696749,90.0150974 C412.774224,89.8103164 409.977068,89.5747591 407.436564,89.2598935 C404.896061,88.9225376 402.613392,88.5212615 400.732852,88.0122683 C396.957579,87.0262418 394.819203,85.8591085 394.893715,85.6945735 C394.991882,85.4459954 397.240251,86.2142201 400.97886,86.8877483 C402.844025,87.2440436 405.094759,87.5198469 407.600964,87.7696087 C410.113082,87.9992475 412.887766,88.1874566 415.813839,88.3934213 C418.742278,88.6017534 421.544165,88.8704545 424.082303,89.2350357 C426.619258,89.6339444 428.89483,90.0979568 430.756447,90.6898094 C434.495056,91.8320849 436.560102,93.1388954 436.476128,93.2939608" id="Fill-79" fill="#775298"></path>
                    <g id="Group-83" transform="translate(376.976050, 29.760716)">
                        <mask id="mask-2" fill="white">
                            <use xlink:href="#path-1"></use>
                        </mask>
                        <g id="Clip-82"></g>
                        <path d="M14.9686464,15.4677124 C21.9869648,13.9774276 29.2583874,15.260564 36.3346595,16.440718 C43.4121144,17.6208721 50.7592317,18.6850231 57.6782008,16.7839925 C70.1701925,13.3524312 79.6533197,0.721113198 92.6077587,0.822300041 C97.94187,0.864341525 102.969654,3.14415771 108.166569,4.35035329 C114.619542,5.84892405 121.342178,5.68794015 127.879126,6.75682593 C134.417256,7.82571171 141.170643,10.4570883 144.86549,15.9601337 C149.248687,22.4906352 148.047033,31.702229 143.447397,38.0823999 C138.847761,44.4637546 131.48172,48.348675 123.934722,50.5503666 C118.670392,52.0856322 113.061887,52.9734111 108.506012,56.0285542 C103.898097,59.1192084 100.889233,64.0931376 96.5959235,67.6075583 C85.8224381,76.4249782 69.056061,73.8977677 57.9277567,65.5337068 C55.1317836,63.4326301 52.5404227,60.9941974 49.3990924,59.4565644 C36.6220628,53.1971314 18.2459906,61.4830677 7.24187289,50.0946401 C-3.93255788,38.5286568 -2.34060362,19.1419333 14.9686464,15.4677124" id="Fill-81" fill="#3399E6" mask="url(#mask-2)"></path>
                    </g>
                    <path d="M388.43814,269.220368 C388.43814,269.220368 400.144799,294.332674 401.5144,289.68308 C402.880453,285.031118 402.42865,273.86286 401.695357,272.268409 C400.958517,270.673958 396.173192,263.629729 396.173192,263.629729 L388.43814,269.220368 Z" id="Fill-84" fill="#FFB2A0"></path>
                    <path d="M473.087646,66.151956 C474.171026,67.5404422 473.447196,66.0489737 474.673687,68.0518029 C479.771252,67.8742471 483.192889,63.5572743 483.192889,63.5572743 C483.192889,63.5572743 491.283943,63.7715249 491.190508,62.3250372 C491.098255,60.876182 483.434166,61.4171353 483.434166,61.4171353 C483.434166,61.4171353 491.541778,58.868618 491.097072,57.596135 C490.654731,56.3248356 481.294608,60.3802096 481.294608,60.3802096 C481.294608,60.3802096 490.739888,54.512583 489.344267,53.5715374 C487.949828,52.6328591 478.861733,57.7547515 478.861733,57.7547515 C478.861733,57.7547515 486.760002,51.2621285 485.576089,50.425249 C484.394542,49.5883694 473.438917,58.0388407 473.438917,58.0388407 C473.598585,53.8816681 470.619289,54.0272638 470.619289,54.0272638 L470.742293,64.1775358 C470.742293,64.1775358 472.588534,65.5127552 473.087646,66.151956" id="Fill-86" fill="#FFC6B2"></path>
                    <path d="M353.154827,20.2122395 C351.423311,20.5318399 352.765709,19.929334 350.518522,20.615883 C346.827223,17.0931763 347.316873,11.5569872 347.316873,11.5569872 C347.316873,11.5569872 341.126465,6.34158215 342.153075,5.32241199 C343.185598,4.30087441 348.556374,9.79800129 348.556374,9.79800129 C348.556374,9.79800129 344.186187,2.50400995 345.361821,1.84823727 C346.536271,1.1924646 350.847321,10.4443043 350.847321,10.4443043 C350.847321,10.4443043 347.67524,-0.219695682 349.342889,0.00402459762 C351.008173,0.227744877 354.407338,10.0951113 354.407338,10.0951113 C354.407338,10.0951113 352.808287,-0.00662874903 354.245304,0.153171451 C355.684686,0.311787945 358.273681,13.9113768 358.273681,13.9113768 C360.911169,10.6964335 363.041265,12.7856732 363.041265,12.7856732 L356.355294,20.1447683 C356.355294,20.1447683 353.950804,20.0666438 353.154827,20.2122395" id="Fill-88" fill="#FFC6B2"></path>
                    <path d="M395.150486,62.6112571 C392.911578,62.2431248 387.498224,65.843956 384.789773,71.7127663 C383.273513,74.9975481 382.230346,78.3344131 383.970141,83.6764745 C384.789773,86.1894807 386.504731,86.5043462 386.887936,87.6300499 C387.371672,89.0552309 385.769073,93.5473921 385.769073,93.5473921 L392.159362,96.1302368 C392.5745,93.0443174 393.045227,89.9394587 396.18774,88.5995044 C397.363373,88.0976134 398.621798,87.7803804 399.731198,87.143547 C402.724687,85.4259908 404.323738,81.6689106 405.553777,78.5924608 C406.471575,76.294889 400.763721,63.5321797 395.150486,62.6112571" id="Fill-90" fill="#FFC6B2"></path>
                    <path d="M387.543523,149.830325 L376.837453,145.531107 C376.837453,145.531107 345.064601,204.499748 345.196653,220.860921 C345.328349,237.220911 388.835064,269.977584 388.835064,269.977584 L396.172719,263.630557 C396.172719,263.630557 382.740457,240.189643 375.560105,231.925014 C368.37857,223.658017 387.543523,149.830325 387.543523,149.830325" id="Fill-92" fill="#FFB2A0"></path>
                    <path d="M440.700602,217.00441 C440.700602,217.00441 464.297244,205.799457 459.55568,204.809879 C454.814116,203.825036 443.724842,205.182746 442.197938,206.044484 C440.668668,206.907405 434.043016,212.251834 434.043016,212.251834 L440.700602,217.00441 Z" id="Fill-94" fill="#FFC6B2"></path>
                    <path d="M398.059883,149.318846 L381.818638,155.232637 C381.818638,155.232637 365.572662,226.747369 371.774896,237.974813 C377.974766,249.206991 395.392827,241.774506 420.199401,228.224633 L440.977597,216.8729 L434.04207,212.252899 C434.04207,212.252899 409.863526,216.994822 403.073474,221.72254 C403.073474,221.72254 406.616932,211.674067 411.341938,197.489728 C416.065761,183.304205 419.324181,168.82394 398.059883,149.318846" id="Fill-96" fill="#FFC6B2"></path>
                    <path d="M378.069029,100.597895 C378.069029,95.8465027 379.597116,92.4102065 384.344594,92.4102065 C389.092071,92.4102065 395.655038,94.0756797 395.655038,98.828256 C395.655038,103.582016 391.914064,111.29859 387.164221,111.29859 C382.416744,111.29859 378.069029,105.351655 378.069029,100.597895" id="Fill-98" fill="#FFC6B2"></path>
                    <path d="M381.818165,91.7293393 C381.818165,91.7293393 367.055332,75.7398497 364.102055,60.075879 C361.147597,44.4142757 356.130457,18.9989417 356.130457,18.9989417 L350.519587,20.615883 C350.519587,20.615883 347.86081,55.3493442 350.519587,60.6677316 C353.175998,65.9873027 366.161188,101.401394 370.115054,110.701766 L381.818165,91.7293393 Z" id="Fill-100" fill="#FFC6B2"></path>
                    <path d="M397.678807,104.191151 C397.678807,104.191151 398.814228,99.2172215 417.482434,92.4570812 C436.150641,85.6981246 471.369968,63.7889254 471.369968,63.7889254 L474.883858,67.8123393 C474.883858,67.8123393 455.74729,89.9346055 444.614255,93.8147911 C433.48122,97.6961604 409.834904,112.99555 407.402028,114.219501 C403.722556,116.072 403.7675,118.402715 397.678807,104.191151" id="Fill-102" fill="#FFC6B2"></path>
                    <path d="M381.818165,91.7293393 C381.818165,91.7293393 366.818786,96.5943676 366.818786,119.436327 C366.818786,119.436327 366.828248,150.720471 370.363427,156.411725 C370.363427,156.411725 376.110311,157.885438 383.275288,156.411725 C390.787987,154.865806 398.05941,149.318964 398.05941,149.318964 L409.858322,113.868177 L408.447325,97.2584262 L392.404779,94.1583023 C392.404779,94.1583023 397.00678,115.681614 380.356311,106.42859 C377.120362,104.630542 385.116798,92.4194394 385.116798,92.4194394 L381.818165,91.7293393 Z" id="Fill-104" fill="#22343D"></path>
                    <path d="M369.126883,110.306764 L361.736005,94.8961058 C361.736005,94.8961058 362.79573,85.5472022 376.364006,82.1973166 C376.364006,82.1973166 377.735973,86.9096469 379.240405,88.7100625 C380.743655,90.5092944 385.12212,92.4245293 385.12212,92.4245293 L369.126883,110.306764 Z" id="Fill-106" fill="#22343D"></path>
                    <path d="M397.068873,116.501093 L420.570896,111.679862 C420.570896,111.679862 424.657228,103.2069 414.968306,93.1276502 C414.968306,93.1276502 396.635994,94.2355983 394.263438,94.433277 C391.927547,94.6274047 393.531329,96.4278203 393.531329,96.4278203 L397.068873,116.501093 Z" id="Fill-108" fill="#22343D"></path>
                    <path d="M370.325816,148.791742 C370.325816,148.791742 348.09641,189.924313 344.424034,197.273939 C344.424034,197.273939 410.005217,227.424093 436.627281,191.132876 C436.627281,191.132876 421.483609,159.054466 398.072656,146.842179 L387.973327,143.815445 L370.720848,148.594063" id="Fill-110" fill="#22343D"></path>
                    <path d="M404.693104,78.2034953 C404.693104,78.2034953 407.225329,75.6691825 408.782984,77.4234335 C410.340639,79.1776846 403.135449,81.7119974 403.135449,81.7119974 L404.693104,78.2034953 Z" id="Fill-112" fill="#FFC6B2"></path>
                    <path d="M451.011274,43.6395406 C451.03565,43.7271348 450.057532,44.1509013 448.190002,44.5947907 C446.327202,45.043415 443.563163,45.4506096 440.129698,45.5204482 C436.698599,45.5891031 432.618182,45.2837071 428.152194,44.6776501 C423.682658,44.0846138 418.827553,43.2134068 413.719343,42.6558816 C408.619412,42.1101935 403.715815,42.0107623 399.372831,42.7126995 C395.028665,43.4027996 391.268767,44.8267969 388.394733,46.4899027 C385.5207,48.1660293 383.520704,50.0256301 382.293031,51.4330556 C381.058261,52.8416647 380.502378,53.7412807 380.377008,53.6655235 C380.30841,53.6300124 380.679787,52.6167608 381.798649,51.037698 C382.910415,49.4633701 384.872564,47.3859675 387.798638,45.5074274 C390.722346,43.6407243 394.608795,42.0368038 399.124458,41.2342517 C403.646034,40.4198625 408.703386,40.4825989 413.892021,41.0389403 C419.085388,41.6059351 423.946407,42.5268578 428.363903,43.1944675 C432.780216,43.875098 436.771929,44.2917622 440.133247,44.3698867 C446.871258,44.5580959 450.94931,43.3613699 451.011274,43.6395406" id="Fill-114" fill="#775298"></path>
                    <path d="M391.798038,76.76482 C391.790942,76.8642512 391.069477,76.9340898 389.968355,76.5683249 C389.696327,76.4724448 389.374625,76.3469721 389.075394,76.0723524 C388.927553,75.9350426 388.790356,75.752752 388.706383,75.5337666 C388.585744,75.2271869 388.595206,74.8791776 388.714662,74.6140277 C388.750144,74.5607609 388.747778,74.4341045 388.817559,74.4317371 L389.031633,74.4246348 C389.16883,74.4056955 389.330864,74.4506763 389.48935,74.480269 C389.780301,74.5359031 389.873737,74.5276172 390.080715,74.5418216 C390.443813,74.5501076 390.819921,74.512229 391.196029,74.4293697 C392.733577,74.1050344 393.762552,72.9852493 394.223817,72.0643267 C394.707553,71.1374855 394.750132,70.4402832 394.879049,70.4485691 C394.970119,70.4367321 395.149894,71.1777315 394.750132,72.2963329 C394.546702,72.8443884 394.193066,73.4729359 393.621808,74.0245425 C393.054097,74.5749654 392.267582,75.0271408 391.374621,75.2224521 C390.928732,75.3218834 390.480477,75.3597619 390.048781,75.3372715 C389.860727,75.3278019 389.565044,75.2899233 389.478705,75.270984 C389.399462,75.2579633 389.408924,75.2402077 389.393549,75.2496773 C389.384087,75.259147 389.379356,75.2745352 389.380539,75.2970256 C389.412472,75.403559 389.470426,75.5053577 389.552034,75.596503 C389.716434,75.7823447 389.955345,75.9208382 390.188343,76.0368413 C391.14044,76.5044048 391.815779,76.6428983 391.798038,76.76482" id="Fill-116" fill="#FF7B5B"></path>
                    <path d="M386.52602,77.0388477 L395.183602,80.4526535 C395.183602,80.4526535 387.575102,85.7035697 386.52602,77.0388477" id="Fill-118" fill="#FFFFFF"></path>
                    <path d="M398.880579,78.6814754 C398.573069,79.2662258 397.619789,79.3680244 396.750483,78.9099305 C395.881176,78.4530203 395.425825,77.6078548 395.732152,77.0242882 C396.039662,76.4395378 396.994125,76.3365554 397.863431,76.7946494 C398.732738,77.2527433 399.188089,78.0967251 398.880579,78.6814754" id="Fill-120" fill="#FFB2A0"></path>
                    <path d="M389.218268,73.554138 C388.955702,74.1601951 388.013066,74.3353835 387.111826,73.9447608 C386.210586,73.554138 385.691368,72.7468511 385.953934,72.1407941 C386.215317,71.534737 387.159136,71.3595486 388.060376,71.7501713 C388.961616,72.1407941 389.480834,72.948081 389.218268,73.554138" id="Fill-122" fill="#FFB2A0"></path>
                    <path d="M386.011415,86.5413962 C386.011415,86.5413962 389.046299,89.0851786 392.212467,88.2660547 C392.212467,88.2660547 391.120807,89.9043026 386.918568,89.3029804 C386.918568,89.3029804 387.267474,87.49783 386.011415,86.5413962" id="Fill-124" fill="#FFA192"></path>
                    <path d="M398.050066,73.2397459 C398.050066,73.6185316 397.742556,73.9262949 397.364083,73.9262949 C396.985609,73.9262949 396.678099,73.6185316 396.678099,73.2397459 C396.678099,72.8609603 396.985609,72.5531969 397.364083,72.5531969 C397.742556,72.5531969 398.050066,72.8609603 398.050066,73.2397459" id="Fill-126" fill="#22343D"></path>
                    <path d="M392.436712,71.2162019 C392.436712,71.5949876 392.129203,71.9027509 391.750729,71.9027509 C391.372256,71.9027509 391.065929,71.5949876 391.065929,71.2162019 C391.065929,70.8374163 391.372256,70.5296529 391.750729,70.5296529 C392.129203,70.5296529 392.436712,70.8374163 392.436712,71.2162019" id="Fill-128" fill="#22343D"></path>
                    <path d="M400.253846,71.4110398 C400.042138,71.5010014 399.632913,71.0050289 399.013163,70.6037529 C398.406422,70.1847212 397.791403,69.9965121 397.792586,69.7668733 C397.772479,69.5467041 398.631141,69.3679647 399.464966,69.9278572 C400.299973,70.4841986 400.465555,71.3447523 400.253846,71.4110398" id="Fill-130" fill="#775298"></path>
                    <path d="M390.361258,68.0800934 C390.347065,67.8658428 391.083906,67.595958 392.070303,67.6219995 C393.07444,67.6433062 393.816012,68.1309927 393.713114,68.33459 C393.618496,68.5405547 392.919503,68.4517768 392.038369,68.435205 C391.152504,68.4091635 390.375451,68.3132833 390.361258,68.0800934" id="Fill-132" fill="#775298"></path>
                    <path d="M393.452559,279.424144 C393.452559,279.424144 397.053971,292.217629 400.772473,291.17005 C404.490976,290.123655 401.695003,272.268646 401.695003,272.268646 L397.984779,266.399835 C397.984779,266.399835 401.470284,296.287208 393.452559,279.424144" id="Fill-134" fill="#22343D"></path>
                    <path d="M438.865242,208.497713 C438.865242,208.497713 441.483806,205.637881 444.658252,205.162031 C447.833882,204.684998 459.182174,203.334391 460.84864,204.843615 C462.516289,206.352839 451.650551,211.413179 451.650551,211.413179 C451.650551,211.413179 455.436469,208.99842 453.864621,208.101171 C451.086389,206.511455 438.865242,208.497713 438.865242,208.497713" id="Fill-136" fill="#22343D"></path>
                    <polygon id="Fill-138" fill="#22343D" points="434.362472 211.922882 437.915392 219.1423 439.853886 218.065128 435.11587 210.953427"></polygon>
                    <polygon id="Fill-140" fill="#22343D" points="394.633041 260.735688 385.911592 268.602592 388.495857 270.75812 395.816954 262.783498"></polygon>
                    <path d="M212.297981,182.418675 C209.817797,176.258673 208.864517,169.400286 205.163755,163.887771 C199.837923,155.955762 189.608493,152.019942 185.286799,143.497265 C183.451202,139.877495 182.875213,135.736894 182.855902,131.677969 C182.820807,123.647713 185.222932,115.110831 191.420435,110.007878 C198.541651,104.143803 209.226432,104.225478 217.567042,108.164849 C225.905287,112.10422 232.276652,119.254983 237.693555,126.724163 C243.11164,134.192159 247.854386,142.207026 254.163066,148.937574 C258.840763,153.928075 264.388948,158.232027 267.9123,164.094919 C277.571654,180.168452 267.633176,200.50569 250.580578,206.30703 C235.596575,211.40288 217.481886,195.297388 212.297981,182.418675" id="Fill-142" fill="#22343D"></path>
                    <path d="M190.95172,295.782121 C192.434863,297.002521 190.816888,296.157355 192.974188,297.563597 C192.492817,302.957741 187.507611,306.356159 187.507611,306.356159 C187.507611,306.356159 187.297085,314.94394 185.695669,314.767568 C184.090704,314.593563 185.118496,306.498204 185.118496,306.498204 C185.118496,306.498204 181.836421,314.956961 180.447897,314.418375 C179.060555,313.882157 184.084791,304.175774 184.084791,304.175774 C184.084791,304.175774 177.042818,313.876238 176.075345,312.346891 C175.109055,310.818728 181.305376,301.457987 181.305376,301.457987 C181.305376,301.457987 173.654297,309.485876 172.789721,308.186167 C171.926329,306.89001 181.920395,295.725303 181.920395,295.725303 C177.294739,295.674403 177.622355,292.52338 177.622355,292.52338 L188.889039,293.192174 C188.889039,293.192174 190.269285,295.218677 190.95172,295.782121" id="Fill-144" fill="#FFC6B2"></path>
                    <path d="M298.585332,133.817398 C300.513181,134.155937 299.017028,133.516736 301.518502,134.244715 C305.627305,130.508942 305.082066,124.638948 305.082066,124.638948 C305.082066,124.638948 311.97265,119.108677 310.830133,118.027954 C309.68052,116.944864 303.703003,122.772244 303.703003,122.772244 C303.703003,122.772244 308.566388,115.039099 307.258289,114.34308 C305.952555,113.648245 301.154221,123.458793 301.154221,123.458793 C301.154221,123.458793 304.684669,112.150858 302.827783,112.387599 C300.975629,112.625524 297.192076,123.088294 297.192076,123.088294 C297.192076,123.088294 298.970902,112.376946 297.370668,112.546215 C295.769252,112.714302 293.179074,126.747126 293.179074,126.747126 C289.406166,123.674228 286.765131,125.641546 286.765131,125.641546 L295.02295,133.745192 C295.02295,133.745192 297.699467,133.663516 298.585332,133.817398" id="Fill-146" fill="#FFC6B2"></path>
                    <path d="M251.418187,180.718164 C254.903692,180.17366 265.532884,187.067559 262.827981,201.06724 C262.60208,202.242659 261.068079,204.830239 260.686058,205.900308 C260.203504,207.255651 263.963402,212.216559 263.963402,212.216559 L254.256739,215.320234 C253.842783,212.385829 254.539411,208.097265 251.402812,206.822415 C250.229544,206.345382 248.973485,206.043537 247.86645,205.438663 C244.877692,203.80515 243.282189,200.231544 242.054516,197.306609 C241.1379,195.120305 240.44009,192.769467 240.46611,190.397322 C240.529977,184.424345 245.815596,181.594106 251.418187,180.718164" id="Fill-148" fill="#FFC6B2"></path>
                    <path d="M270.855878,219.059796 C270.855878,214.020763 269.259193,212.097242 263.974756,212.097242 C258.690319,212.097242 251.714579,214.020763 251.714579,219.059796 C251.714579,224.100012 255.446092,230.406794 260.732894,230.406794 C266.016148,230.406794 270.855878,224.100012 270.855878,219.059796" id="Fill-150" fill="#FFC6B2"></path>
                    <path d="M266.682734,209.654785 C266.682734,209.654785 283.114399,192.699391 286.401205,176.08964 C289.689193,159.481073 295.274043,132.530473 295.274043,132.530473 L301.518856,134.244478 C301.518856,134.244478 304.478046,171.076649 301.518856,176.717004 C298.562032,182.358543 281.799203,221.530899 282.128002,231.558065 L266.682734,209.654785 Z" id="Fill-152" fill="#FFC6B2"></path>
                    <path d="M237.392313,217.86449 C237.392313,217.86449 231.805098,218.804352 223.259875,238.234873 C214.714653,257.66421 188.42257,293.835873 188.42257,293.835873 L192.695773,297.77406 C192.695773,297.77406 218.330258,278.659588 223.259875,267.065196 C228.18831,255.470804 234.433123,241.055642 237.392313,241.680638 C240.349138,242.309186 252.838764,225.070887 237.392313,217.86449" id="Fill-154" fill="#FFC6B2"></path>
                    <path d="M281.38371,234.148486 L289.034789,213.01343 C289.034789,213.01343 287.854425,203.101082 272.753331,199.547599 L264.198647,211.882991 L281.38371,234.148486 Z" id="Fill-156" fill="#FF7B5B"></path>
                    <path d="M239.943107,216.242696 C239.943107,216.242696 230.916513,217.003818 223.600147,233.08682 C223.600147,233.08682 231.646257,244.20418 237.532703,244.579414 C237.532703,244.579414 259.395463,225.876872 239.943107,216.242696" id="Fill-158" fill="#FF7B5B"></path>
                    <path d="M264.744713,406.969442 C264.744713,406.969442 251.714579,433.599258 250.191223,428.669126 C248.670233,423.736626 249.172893,411.892472 249.988977,410.202141 C250.808608,408.510627 256.135623,401.041447 256.135623,401.041447 L264.744713,406.969442 Z" id="Fill-160" fill="#FFC6B2"></path>
                    <path d="M265.740335,280.366255 L277.656337,275.806622 C277.656337,275.806622 313.019957,338.3394 312.873754,355.688967 C312.72664,373.036166 264.303318,407.773178 264.303318,407.773178 L256.135387,401.041447 C256.135387,401.041447 279.08744,367.267971 287.079145,358.503817 C291.075589,354.120557 262.465356,332.641043 258.131834,311.97355 C253.798313,291.306058 265.740335,280.366255 265.740335,280.366255" id="Fill-162" fill="#3399E6"></path>
                    <path d="M194.095061,393.019359 C194.095061,393.019359 169.721366,410.99984 170.734965,405.953705 C171.752113,400.902835 177.888115,390.59513 179.426846,389.44812 C180.967943,388.303477 189.28963,383.990055 189.28963,383.990055 L194.095061,393.019359 Z" id="Fill-164" fill="#FFC6B2"></path>
                    <path d="M233.320293,302.509827 L268.575102,282.06132 C268.575102,282.06132 269.974271,353.093101 261.510657,368.451676 C253.048225,383.810251 193.316824,393.540307 193.316824,393.540307 L189.28963,383.990174 C189.28963,383.990174 226.141123,362.015871 237.455116,357.71547 C248.770292,353.412701 233.320293,302.509827 233.320293,302.509827" id="Fill-166" fill="#3399E6"></path>
                    <path d="M254.316703,268.073713 C254.316703,268.073713 228.35815,277.272286 233.320884,302.510064 C238.282436,327.746659 246.553265,332.477928 246.553265,332.477928 L261.440284,308.030865 L276.38644,276.015191 L261.440284,274.117712 L254.316703,268.073713 Z" id="Fill-168" fill="#3399E6"></path>
                    <path d="M266.682734,209.654785 C266.682734,209.654785 285.794464,220.374419 285.794464,244.596578 C285.794464,244.596578 283.36632,272.211236 279.431378,278.244581 C279.431378,278.244581 273.035176,279.808256 265.060029,278.244581 C256.698129,276.606333 248.605892,270.724502 248.605892,270.724502 L242.074859,236.915515 L236.993852,217.174864 L239.748429,216.265778 L254.122144,214.685532 C254.122144,214.685532 252.057098,236.174515 268.106741,225.503413 C271.486982,223.255557 263.898588,212.050604 263.898588,212.050604 L266.682734,209.654785 Z" id="Fill-170" fill="#FF7B5B"></path>
                    <polygon id="Fill-172" fill="#FFFFFF" points="278.380759 118.122887 318.451644 141.517636 340.992107 98.9066173 303.425062 78.0189556"></polygon>
                    <polygon id="Fill-174" fill="#FFFFFF" points="334.126125 322.097544 362.784849 304.341966 339.107782 262.979756 312.910318 279.981314"></polygon>
                    <path d="M193.019131,145.844552 C193.094826,145.777081 193.979508,146.580817 195.378677,148.220249 C196.771933,149.862048 198.67258,152.358482 200.580323,155.727307 C202.495162,159.081927 204.389895,163.338531 205.742938,168.279317 C207.14329,173.183407 208.082378,178.695922 210.234946,184.006024 C211.352625,186.629115 212.706851,189.071098 214.318912,191.230177 C215.945165,193.37505 217.748828,195.257142 219.605714,196.898941 C223.399911,200.094945 227.375065,202.293085 230.917341,203.563201 C234.456068,204.851072 237.487405,205.42872 239.595029,205.635869 C241.700288,205.869059 242.890114,205.903386 242.891319,206.04188 C242.897211,206.12829 241.710933,206.309397 239.548903,206.267967 C237.388055,206.251395 234.243177,205.838282 230.538867,204.649842 C226.832192,203.477974 222.644146,201.309426 218.639423,198.043584 C216.674909,196.36509 214.765983,194.421446 213.046294,192.187794 C211.340798,189.941122 209.900233,187.372481 208.730513,184.622734 C206.488058,179.072341 205.602193,173.511294 204.297642,168.672307 C203.052228,163.816748 201.320711,159.638269 199.570271,156.276546 C197.830476,152.905354 196.10369,150.349734 194.879565,148.60732 C193.648344,146.868457 192.926878,145.926228 193.019131,145.844552" id="Fill-176" fill="#22343D"></path>
                    <path d="M242.250258,118.473831 C242.544757,118.42923 242.830978,122.376887 245.037952,128.216105 C246.140256,131.124468 247.779519,134.470803 250.134334,137.825423 C251.31115,139.505101 252.665376,141.159921 254.198194,142.808822 C255.720367,144.464826 257.378554,146.146871 258.945671,148.033697 C262.088184,151.841676 264.250214,155.957419 266.285692,159.590211 C268.306977,163.258513 269.916672,166.748076 270.735121,169.869506 C271.589052,172.981467 271.638727,175.660192 271.367881,177.436934 C271.085209,179.221961 270.641685,180.126312 270.568356,180.101953 C270.427611,180.064759 270.657061,179.109509 270.737487,177.380116 C270.807268,175.65309 270.58728,173.136533 269.632817,170.195025 C268.710288,167.241681 267.050918,163.913102 264.979958,160.322924 C262.877065,156.73393 260.696111,152.701046 257.694343,149.071806 C256.187545,147.256002 254.553012,145.579876 253.021377,143.882443 C251.481463,142.193295 250.081111,140.43431 248.899564,138.67414 C246.529374,135.15025 244.946881,131.638196 243.955754,128.601992 C242.942154,125.566972 242.510458,123.005434 242.305846,121.24053 C242.103599,119.472074 242.158005,118.482497 242.250258,118.473831" id="Fill-178" fill="#22343D"></path>
                    <path d="M254.534917,195.935286 C254.519541,195.821651 255.172408,195.717485 255.78861,194.993057 C255.930538,194.826155 256.073648,194.582311 256.071283,194.440267 C256.067734,194.287569 255.961289,194.022419 255.777966,193.869721 C255.587546,193.699267 255.375838,193.616408 255.096713,193.644817 C254.808127,193.666123 254.456857,193.809352 253.997957,193.878007 C252.992637,194.011765 252.208487,193.443587 251.692817,192.983126 C251.162954,192.49899 250.758461,192.007753 250.456865,191.567414 C249.856038,190.680819 249.669166,190.040434 249.761419,189.993086 C249.867865,189.936268 250.22978,190.466568 250.907485,191.209935 C251.245745,191.579251 251.672711,192.003018 252.176554,192.411396 C252.6733,192.807937 253.281223,193.168967 253.887964,193.073087 C254.209666,193.031657 254.584591,192.881327 255.041125,192.850551 C255.505938,192.804386 256.022791,193.018637 256.306646,193.338237 C256.608242,193.66494 256.777372,194.049644 256.74189,194.50537 C256.652003,194.97175 256.404812,195.189552 256.2002,195.393149 C255.316701,196.167293 254.506531,196.040636 254.534917,195.935286" id="Fill-180" fill="#FF7B5B"></path>
                    <path d="M259.270567,196.602304 L251.574544,199.402951 C251.574544,199.402951 258.104395,205.120247 259.270567,196.602304" id="Fill-182" fill="#FFFFFF"></path>
                    <path d="M250.806598,196.125508 C251.114107,196.710258 250.658756,197.555424 249.78945,198.012334 C248.920144,198.470428 247.966864,198.368629 247.659354,197.783879 C247.351844,197.200312 247.807195,196.355147 248.676501,195.897053 C249.545808,195.438959 250.499088,195.540757 250.806598,196.125508" id="Fill-184" fill="#FFB2A0"></path>
                    <path d="M259.930057,191.443244 C260.181978,192.054035 259.64975,192.851853 258.742596,193.227087 C257.83426,193.603505 256.893989,193.412929 256.642068,192.802137 C256.390147,192.191345 256.922375,191.393528 257.830711,191.018293 C258.737865,190.643059 259.678135,190.832452 259.930057,191.443244" id="Fill-186" fill="#FFB2A0"></path>
                    <path d="M251.80222,207.027314 C251.80222,207.027314 254.377022,207.551696 257.659097,206.731388 C257.659097,206.731388 256.041123,208.304532 253.397722,208.670297 C253.397722,208.670297 252.805174,207.574186 251.80222,207.027314" id="Fill-188" fill="#FFA192"></path>
                    <path d="M254.432729,189.713969 C254.721315,189.958996 254.756797,190.392232 254.511972,190.681056 C254.267147,190.96988 253.83545,191.005391 253.545682,190.760364 C253.257095,190.516521 253.221614,190.083285 253.466439,189.793277 C253.711264,189.504453 254.144143,189.468942 254.432729,189.713969" id="Fill-190" fill="#22343D"></path>
                    <path d="M249.261243,192.691697 C249.549829,192.936724 249.585311,193.36996 249.340486,193.658785 C249.096844,193.947609 248.663964,193.98312 248.374196,193.738093 C248.08561,193.493066 248.050128,193.061013 248.294953,192.771006 C248.539778,192.482182 248.972657,192.44667 249.261243,192.691697" id="Fill-192" fill="#22343D"></path>
                    <path d="M254.463362,186.84881 C254.394763,187.068979 253.752541,187.060693 253.046451,187.274944 C252.334448,187.466704 251.79394,187.814714 251.618896,187.664383 C251.437939,187.53891 251.856625,186.767135 252.822915,186.492515 C253.78684,186.214344 254.549701,186.645213 254.463362,186.84881" id="Fill-194" fill="#22343D"></path>
                    <path d="M245.529376,192.248992 C245.356697,192.121151 245.627542,191.384887 246.28514,190.648622 C246.949834,189.895786 247.8014,189.64484 247.890104,189.854356 C247.985905,190.059137 247.466687,190.53617 246.883601,191.197861 C246.292236,191.857185 245.716247,192.389853 245.529376,192.248992" id="Fill-196" fill="#22343D"></path>
                    <path d="M242.626839,197.968063 C242.626839,197.968063 240.158482,195.893028 238.973386,197.770384 C237.789474,199.647741 244.305132,200.636135 244.305132,200.636135 L242.626839,197.968063 Z" id="Fill-198" fill="#FFC6B2"></path>
                    <path d="M183.275449,387.175998 C183.275449,387.175998 179.736721,388.715998 178.814192,389.640472 C177.89048,390.563762 169.428049,405.191991 170.505515,407.039755 C171.582982,408.887518 180.069068,402.615065 180.069068,402.615065 C180.069068,402.615065 172.967959,403.960937 183.275449,387.175998" id="Fill-200" fill="#775298"></path>
                    <path d="M252.328889,406.519753 C252.328889,406.519753 249.815588,409.238724 249.427653,410.487533 C249.039718,411.733974 248.345455,428.62308 250.15858,429.757069 C251.970522,430.892243 256.923794,421.572932 256.923794,421.572932 C256.923794,421.572932 251.001866,426.215423 252.328889,406.558815" id="Fill-202" fill="#775298"></path>
                </g>
            </g>
        </g>
    </g>
</svg>