<svg width="18" height="18" viewBox="0 0 18 18" fill="none" xmlns="http://www.w3.org/2000/svg">
<path fill-rule="evenodd" clip-rule="evenodd" d="M7.80001 9.20888C7.80078 9.58532 7.49644 9.89121 7.12001 9.89237H1.68001C1.49917 9.892 1.32589 9.81976 1.19835 9.69156C1.0708 9.56336 0.999451 9.38972 1 9.20888V1.68355C0.999636 1.50265 1.07114 1.32901 1.1988 1.20083C1.32646 1.07265 1.4998 1.00043 1.6807 1.00006L7.1207 1.00913C7.49687 1.01067 7.80078 1.31645 7.80001 1.69261V9.20888Z" stroke="white" stroke-width="1.04615" stroke-linecap="round" stroke-linejoin="round"/>
<path fill-rule="evenodd" clip-rule="evenodd" d="M16.6896 5.0368C16.687 5.40977 16.3826 5.71005 16.0096 5.70775H10.5696C10.3905 5.70903 10.2181 5.63905 10.0906 5.5132C9.96304 5.38736 9.89075 5.21597 9.88965 5.0368V1.68004C9.89195 1.30745 10.1957 1.00717 10.5683 1.0091L16.0083 1.00002C16.3816 0.997329 16.6866 1.29761 16.6896 1.67097V5.0368Z" stroke="white" stroke-width="1.04615" stroke-linecap="round" stroke-linejoin="round"/>
<path fill-rule="evenodd" clip-rule="evenodd" d="M7.8 16.0193C7.79889 16.1989 7.72648 16.3707 7.59869 16.4969C7.47091 16.6232 7.29821 16.6935 7.11861 16.6923L1.67861 16.6833C1.30563 16.6848 1.00192 16.3839 1 16.0109V12.657C1.00092 12.4776 1.07311 12.306 1.20065 12.1799C1.3282 12.0538 1.50064 11.9835 1.68 11.9846H7.12C7.49336 11.9827 7.7977 12.2836 7.8 12.657V16.0193Z" stroke="white" stroke-width="1.04615" stroke-linecap="round" stroke-linejoin="round"/>
<path fill-rule="evenodd" clip-rule="evenodd" d="M10.5704 16.6924C10.3893 16.692 10.2159 16.6197 10.0882 16.4913C9.96053 16.363 9.8891 16.1892 9.88965 16.0082V8.48423C9.8891 8.30333 9.96043 8.12962 10.088 8.00131C10.2155 7.873 10.3888 7.8006 10.5697 7.80005H16.0097C16.1906 7.8006 16.3638 7.873 16.4914 8.00131C16.6189 8.12962 16.6902 8.30333 16.6897 8.48423V15.9991C16.6904 16.3754 16.3866 16.6814 16.0104 16.6833L10.5704 16.6924Z" stroke="white" stroke-width="1.04615" stroke-linecap="round" stroke-linejoin="round"/>
</svg>
