<?xml version="1.0" encoding="UTF-8"?>
<svg width="17px" height="12px" viewBox="0 0 17 12" version="1.1" xmlns="http://www.w3.org/2000/svg" xmlns:xlink="http://www.w3.org/1999/xlink">
    <title>mail (1)</title>
    <g id="Page-1" stroke="none" stroke-width="1" fill="none" fill-rule="evenodd">
        <g id="login-copy-7" transform="translate(-614.000000, -430.000000)" fill="#346EDF" fill-rule="nonzero">
            <g id="mail-(1)" transform="translate(614.000000, 430.000000)">
                <path d="M16.23968,0.823072 L11.270752,5.76 L16.23968,10.696928 C16.329504,10.509184 16.384,10.301632 16.384,10.08 L16.384,1.44 C16.384,1.218336 16.329504,1.010816 16.23968,0.823072 Z" id="Path"></path>
                <path d="M14.944,0 L1.44,0 C1.218336,0 1.010816,0.054496 0.823072,0.14432 L7.173888,6.463136 C7.735424,7.024672 8.648576,7.024672 9.210112,6.463136 L15.560928,0.14432 C15.373184,0.054496 15.165664,0 14.944,0 Z" id="Path"></path>
                <path d="M0.14432,0.823072 C0.054496,1.010816 0,1.218336 0,1.44 L0,10.08 C0,10.301664 0.054496,10.509216 0.14432,10.696928 L5.113248,5.76 L0.14432,0.823072 Z" id="Path"></path>
                <path d="M10.592,6.438752 L9.888864,7.141888 C8.953216,8.077536 7.430752,8.077536 6.495104,7.141888 L5.792,6.438752 L0.823072,11.37568 C1.010816,11.465504 1.218336,11.52 1.44,11.52 L14.944,11.52 C15.165664,11.52 15.373184,11.465504 15.560928,11.37568 L10.592,6.438752 Z" id="Path"></path>
            </g>
        </g>
    </g>
</svg>
