<svg width="23" height="23" viewBox="0 0 23 23" fill="none" xmlns="http://www.w3.org/2000/svg">
<path d="M19.7146 20.5354V18.8925C19.7146 18.0211 19.3685 17.1854 18.7523 16.5692C18.1361 15.953 17.3003 15.6068 16.4289 15.6068H9.85749C8.98607 15.6068 8.15033 15.953 7.53414 16.5692C6.91795 17.1854 6.57178 18.0211 6.57178 18.8925V20.5354" stroke="white" stroke-linecap="round" stroke-linejoin="round"/>
<path d="M13.1431 12.3214C14.9578 12.3214 16.4289 10.8503 16.4289 9.03568C16.4289 7.22103 14.9578 5.74997 13.1431 5.74997C11.3285 5.74997 9.85742 7.22103 9.85742 9.03568C9.85742 10.8503 11.3285 12.3214 13.1431 12.3214Z" stroke="white" stroke-linecap="round" stroke-linejoin="round"/>
<g clip-path="url(#clip0)">
<path d="M7.13246 1.57785C6.95765 1.40296 6.75009 1.26422 6.52164 1.16956C6.2932 1.0749 6.04834 1.02618 5.80106 1.02618C5.55378 1.02618 5.30892 1.0749 5.08048 1.16956C4.85203 1.26422 4.64447 1.40296 4.46966 1.57785L4.10686 1.94065L3.74407 1.57785C3.39096 1.22474 2.91204 1.02637 2.41267 1.02637C1.9133 1.02637 1.43438 1.22474 1.08127 1.57785C0.72816 1.93096 0.529785 2.40988 0.529785 2.90925C0.529785 3.40862 0.72816 3.88754 1.08127 4.24065L1.44407 4.60345L4.10686 7.26624L6.76966 4.60345L7.13246 4.24065C7.30735 4.06584 7.44609 3.85828 7.54075 3.62983C7.63541 3.40139 7.68413 3.15653 7.68413 2.90925C7.68413 2.66197 7.63541 2.41711 7.54075 2.18867C7.44609 1.96022 7.30735 1.75266 7.13246 1.57785V1.57785Z" stroke="white" stroke-width="0.684524" stroke-linecap="round" stroke-linejoin="round"/>
</g>
<defs>
<clipPath id="clip0">
<rect width="8.21429" height="8.21429" fill="white"/>
</clipPath>
</defs>
</svg>
