<?xml version="1.0" encoding="UTF-8"?>
<svg width="13px" height="18px" viewBox="0 0 13 18" version="1.1" xmlns="http://www.w3.org/2000/svg" xmlns:xlink="http://www.w3.org/1999/xlink">
    <title>password-blue</title>
    <g id="Page-1" stroke="none" stroke-width="1" fill="none" fill-rule="evenodd">
        <g id="padlock-copy" transform="translate(0.000000, 0.000000)" fill="#346EDF" fill-rule="nonzero">
            <path d="M11.375,6.75 L10.8333333,6.75 L10.8333333,4.5 C10.8333333,2.01825 8.88983333,0 6.5,0 C4.11016667,0 2.16666667,2.01825 2.16666667,4.5 L2.16666667,6.75 L1.625,6.75 C0.729444444,6.75 0,7.50675 0,8.4375 L0,16.3125 C0,17.24325 0.729444444,18 1.625,18 L11.375,18 C12.2705556,18 13,17.24325 13,16.3125 L13,8.4375 C13,7.50675 12.2705556,6.75 11.375,6.75 Z M3.61111111,4.5 C3.61111111,2.8455 4.90677778,1.5 6.5,1.5 C8.09322222,1.5 9.38888889,2.8455 9.38888889,4.5 L9.38888889,6.75 L3.61111111,6.75 L3.61111111,4.5 Z M7.22222222,12.5415 L7.22222222,14.25 C7.22222222,14.664 6.89938889,15 6.5,15 C6.10061111,15 5.77777778,14.664 5.77777778,14.25 L5.77777778,12.5415 C5.34805556,12.28125 5.05555556,11.80275 5.05555556,11.25 C5.05555556,10.42275 5.70338889,9.75 6.5,9.75 C7.29661111,9.75 7.94444444,10.42275 7.94444444,11.25 C7.94444444,11.80275 7.65194444,12.28125 7.22222222,12.5415 Z" id="password-blue"></path>
        </g>
    </g>
</svg>