<svg width="18" height="18" viewBox="0 0 18 18" fill="none" xmlns="http://www.w3.org/2000/svg">
<path d="M8.96875 11.0938C11.0226 11.0938 12.6875 9.42881 12.6875 7.375C12.6875 5.32119 11.0226 3.65625 8.96875 3.65625C6.91494 3.65625 5.25 5.32119 5.25 7.375C5.25 9.42881 6.91494 11.0938 8.96875 11.0938Z" stroke="white" stroke-width="1.0625" stroke-linecap="round" stroke-linejoin="round"/>
<path d="M13.8657 15.2559C12.5698 13.9519 10.8074 13.2187 8.96897 13.2187C7.13059 13.2187 5.36813 13.9519 4.07227 15.2559" stroke="white" stroke-width="1.0625" stroke-linecap="round" stroke-linejoin="round"/>
<path d="M8.96875 16.9375C13.3698 16.9375 16.9375 13.3698 16.9375 8.96875C16.9375 4.56773 13.3698 1 8.96875 1C4.56773 1 1 4.56773 1 8.96875C1 13.3698 4.56773 16.9375 8.96875 16.9375Z" stroke="white" stroke-width="1.0625" stroke-linecap="round" stroke-linejoin="round"/>
</svg>
