<?xml version="1.0" encoding="UTF-8"?>
<svg width="17px" height="17px" viewBox="0 0 17 17" version="1.1" xmlns="http://www.w3.org/2000/svg" xmlns:xlink="http://www.w3.org/1999/xlink">
    <title>check-box-with-check-sign 2</title>
    <g id="Page-1" stroke="none" stroke-width="1" fill="none" fill-rule="evenodd">
        <g id="check-box-with-check-sign-2" fill="#346EDF" fill-rule="nonzero">
            <g id="check-box-with-check-sign">
                <path d="M14.3139056,0 L2.68609444,0 C1.20492222,0 0,1.20492222 0,2.68609444 L0,14.3139056 C0,15.7950778 1.20492222,17 2.68609444,17 L14.3139056,17 C15.7950778,17 17,15.7950778 17,14.3139056 L17,2.68609444 C17,1.20492222 15.7950778,0 14.3139056,0 Z M15.2092389,14.3139056 C15.2092389,14.8075667 14.8075667,15.2092389 14.3139528,15.2092389 L2.68609444,15.2092389 C2.19243333,15.2092389 1.79080833,14.8075667 1.79080833,14.3139056 L1.79080833,2.68609444 C1.79080833,2.19243333 2.19248056,1.79080833 2.68609444,1.79080833 L14.3139056,1.79080833 C14.8075667,1.79080833 15.2092389,2.19248056 15.2092389,2.68609444 L15.2092389,14.3139056 L15.2092389,14.3139056 Z" id="Shape"></path>
                <path d="M11.7981889,5.03318056 C11.5093778,5.03318056 11.2379444,5.14571111 11.0336611,5.35004167 L7.03304167,9.35717778 L5.96676389,8.29099444 C5.76262222,8.08680556 5.49118889,7.97432222 5.20247222,7.97432222 C4.91370833,7.97432222 4.642275,8.08680556 4.43808611,8.29094722 C4.23394444,8.49508889 4.12155556,8.76652222 4.12155556,9.05523889 C4.12155556,9.34395556 4.23394444,9.61538889 4.43808611,9.81948333 L6.26889167,11.6502889 C6.47303333,11.8544778 6.74446667,11.9669611 7.03323056,11.9669611 C7.32185278,11.9669611 7.59338056,11.8544306 7.79775833,11.6501 L12.5625278,6.87848333 C12.9838917,6.45697778 12.9838444,5.77121667 12.5625278,5.34971111 C12.3583861,5.14561667 12.0869056,5.03318056 11.7981889,5.03318056 Z" id="Path"></path>
            </g>
        </g>
    </g>
</svg>