<?xml version="1.0" encoding="UTF-8"?>
<svg width="14px" height="13px" viewBox="0 0 14 13" version="1.1" xmlns="http://www.w3.org/2000/svg" xmlns:xlink="http://www.w3.org/1999/xlink">
    <title>search (1)</title>
    <g id="Page-1" stroke="none" stroke-width="1" fill="none" fill-rule="evenodd">
        <g id="login" transform="translate(-699.000000, -622.000000)" fill-rule="nonzero">
            <g id="Group" transform="translate(698.000000, 619.000000)">
                <g id="search-(1)" transform="translate(1.150000, 3.000000)">
                    <path d="M2.72328,7.425792 L2.295552,9.02256 L0.732216,9.055632 C0.265008,8.189064 0,7.1976 0,6.144 C0,5.125176 0.247776,4.164408 0.686976,3.318432 L0.687312,3.318432 L2.07912,3.5736 L2.688816,4.957056 C2.561208,5.32908 2.491656,5.72844 2.491656,6.144 C2.491704,6.595008 2.5734,7.027128 2.72328,7.425792 Z" id="Path" fill="#FBBB00"></path>
                    <path d="M12.180648,4.996224 C12.251208,5.367888 12.288,5.75172 12.288,6.144 C12.288,6.583872 12.241752,7.012944 12.153648,7.426824 C11.85456,8.835216 11.073048,10.065024 9.990432,10.935312 L9.990096,10.934976 L8.23704,10.845528 L7.988928,9.296688 C8.707296,8.875392 9.268704,8.216088 9.564432,7.426824 L6.279072,7.426824 L6.279072,4.996224 L9.61236,4.996224 L12.180648,4.996224 L12.180648,4.996224 Z" id="Path" fill="#518EF8"></path>
                    <path d="M9.990072,10.934976 L9.990408,10.935312 C8.937504,11.781624 7.599984,12.288 6.144,12.288 C3.804216,12.288 1.769952,10.980216 0.732216,9.055656 L2.72328,7.425816 C3.242136,8.810568 4.577952,9.79632 6.144,9.79632 C6.817128,9.79632 7.447752,9.614352 7.98888,9.296688 L9.990072,10.934976 Z" id="Path" fill="#28B446"></path>
                    <path d="M10.065696,1.414464 L8.075304,3.043968 C7.515264,2.693904 6.853248,2.49168 6.144,2.49168 C4.542504,2.49168 3.181704,3.522648 2.68884,4.957056 L0.687312,3.318432 L0.686976,3.318432 C1.70952,1.346952 3.76944,0 6.144,0 C7.63476,0 9.001632,0.531024 10.065696,1.414464 Z" id="Path" fill="#F14336"></path>
                </g>
            </g>
        </g>
    </g>
</svg>