<?xml version="1.0" encoding="UTF-8"?>
<svg width="20px" height="15px" viewBox="0 0 20 15" version="1.1" xmlns="http://www.w3.org/2000/svg" xmlns:xlink="http://www.w3.org/1999/xlink">
    <title>id-card</title>
    <g id="Page-1" stroke="none" stroke-width="1" fill="none" fill-rule="evenodd">
        <g id="login-copy-7" transform="translate(-614.000000, -527.000000)" fill="#D4D4D4" fill-rule="nonzero">
            <g id="id-card" transform="translate(614.000000, 527.000000)">
                <path d="M17.7082825,0 L2.29171754,0 C1.02752687,0 0,1.02752687 0,2.29171754 L0,12.7082825 C0,13.9724731 1.02752687,15 2.29171754,15 L17.7082825,15 C18.9724731,15 20,13.9724731 20,12.7082825 L20,2.29171754 C20,1.02752688 18.9724731,0 17.7082825,0 Z M6.25,3.33328246 C7.39837648,3.33328246 8.33328246,4.26834105 8.33328246,5.41671754 C8.33328246,6.56494141 7.39837648,7.5 6.25,7.5 C5.10162352,7.5 4.16671754,6.56494141 4.16671754,5.41671754 C4.16671754,4.26834105 5.10162352,3.33328246 6.25,3.33328246 Z M10,11.0417175 C10,11.3867188 9.72000121,11.6667175 9.375,11.6667175 L3.125,11.6667175 C2.77999879,11.6667175 2.5,11.3867187 2.5,11.0417175 L2.5,10.625 C2.5,9.36080934 3.52752688,8.33328246 4.79171754,8.33328246 L7.70828246,8.33328246 C8.97247313,8.33328246 10,9.36080934 10,10.625 L10,11.0417175 Z M16.875,11.6667175 L12.2917175,11.6667175 C11.9467163,11.6667175 11.6667175,11.3867187 11.6667175,11.0417175 C11.6667175,10.6967163 11.9467163,10.4167175 12.2917175,10.4167175 L16.875,10.4167175 C17.2200012,10.4167175 17.5,10.6967163 17.5,11.0417175 C17.5,11.3867187 17.2200012,11.6667175 16.875,11.6667175 Z M16.875,8.33328246 L12.2917175,8.33328246 C11.9467163,8.33328246 11.6667175,8.05328367 11.6667175,7.70828246 C11.6667175,7.36328125 11.9467163,7.08328246 12.2917175,7.08328246 L16.875,7.08328246 C17.2200012,7.08328246 17.5,7.36328125 17.5,7.70828246 C17.5,8.05328367 17.2200012,8.33328246 16.875,8.33328246 Z M16.875,5 L12.2917175,5 C11.9467163,5 11.6667175,4.72000121 11.6667175,4.375 C11.6667175,4.02999879 11.9467163,3.75 12.2917175,3.75 L16.875,3.75 C17.2200012,3.75 17.5,4.02999879 17.5,4.375 C17.5,4.72000121 17.2200012,5 16.875,5 Z" id="Shape"></path>
            </g>
        </g>
    </g>
</svg>