<?xml version="1.0" encoding="UTF-8"?>
<svg width="222px" height="41px" viewBox="0 0 222 41" version="1.1" xmlns="http://www.w3.org/2000/svg" xmlns:xlink="http://www.w3.org/1999/xlink">
    <title>PLC_Logo_Horizontal</title>
    <g id="Page-1" stroke="none" stroke-width="1" fill="none" fill-rule="evenodd">
        <g id="register" transform="translate(-41.000000, -41.000000)">
            <g id="PLC_Logo_Horizontal" transform="translate(42.000000, 41.000000)">
                <path d="M4.49947506,11.4553866 C-1.82055621,21.2851341 0.662313221,32.8232602 9.99188319,37.3000881 C19.3944787,41.680546 32.1872311,37.3000881 38.5050495,27.5491889 C44.8250807,17.7172511 42.3399984,6.17255436 32.9374029,1.70448731 C23.6100458,-2.68692172 10.8084419,1.70448731 4.49947506,11.4619573" id="Path" fill="#3399E6"></path>
                <path d="M16.2936808,1.09289544 C11.4200785,-0.0537365441 -1.36429873,9.54258781 0.11897155,22.7893226 C0.472131141,32.9903162 9.79554434,39.3908518 17,40 C-10.8372854,29.7183839 2.66587542,2.84195713 16.2936808,1.09289544" id="Path" fill="#000000" fill-rule="nonzero"></path>
                <path d="M16.2936808,1.09289544 C11.4200785,-0.0537365441 -1.36429873,9.54258781 0.11897155,22.7893226 C0.472131141,32.9903162 9.79554434,39.3908518 17,40 C-10.8268984,29.7183839 2.66172061,2.84195713 16.2936808,1.09289544 Z" id="Path" stroke="#1A171B" stroke-width="0.5"></path>
                <path d="M24.7091664,38.9191849 C29.6045007,39.9809838 42.3674109,30.4651154 40.8802472,17.1366274 C40.5944948,7.00697654 31.1625811,0.533139519 24,0 C50.6646584,10.815116 37.6159958,37.4720919 24.7091664,38.9191849" id="Path" fill="#000000" fill-rule="nonzero"></path>
                <path d="M14.1329281,29 C13.5808528,29.8133204 14.7560424,33.1898926 17.5164185,33.8679911 C19.5867006,34.47649 21.4499545,32.8558148 22,31.5692175 C18.1435922,35.6218996 13.6539216,31.499618 14.1329281,29" id="Path" fill="#000000" fill-rule="nonzero"></path>
                <path d="M14.1329281,29 C13.5808528,29.8133204 14.7560424,33.1898926 17.5164185,33.8679911 C19.5867006,34.47649 21.4499545,32.8558148 22,31.5692175 C18.1375031,35.6298538 13.6458029,31.5075722 14.1329281,29 Z" id="Path" stroke="#1A171B" stroke-width="0.5"></path>
                <path d="M26.0053434,23 C25.9431215,22.6968794 26.4302302,20.9233977 27.1573376,21.002571 C27.6373352,21.002571 27.9395559,22.5407949 28,23 C27.3955586,21.3893891 26.0657876,22.230888 26.0053434,23" id="Path" fill="#000000" fill-rule="nonzero"></path>
                <path d="M26.0053434,23 C25.9431215,22.6968794 26.4302302,20.9233977 27.1573376,21.002571 C27.6373352,21.002571 27.9395559,22.5407949 28,23 C27.3955586,21.3893891 26.0657876,22.230888 26.0053434,23 Z" id="Path" stroke="#1A171B" stroke-width="0.5"></path>
                <path d="M11.0053608,20 C10.9431394,19.7015251 11.4284661,18 12.1537894,18 C12.6995597,18 13,19.5555556 13,19.9237473 C12.3937861,18.4400871 11.0640266,19.2592593 11.0053608,20" id="Path" fill="#000000" fill-rule="nonzero"></path>
                <path d="M11.0053608,20 C10.9431394,19.7015251 11.4284661,18 12.1537894,18 C12.6995597,18 13,19.5555556 13,19.9237473 C12.3866751,18.4400871 11.0640266,19.2592593 11.0053608,20 Z" id="Path" stroke="#1A171B" stroke-width="0.5"></path>
                <path d="M54.3262632,12.3266586 C54.3861918,12.9537854 54.4150259,13.5838635 54.4126443,14.2142488 C54.7821857,13.7749058 55.217313,13.404099 55.7003254,13.1169125 C56.2089105,12.8079573 56.7542326,12.5739157 57.3214778,12.4211455 C57.8624954,12.2688579 58.4193376,12.1902125 58.9787897,12.1870757 C59.7083844,12.1910097 60.4312475,12.3365322 61.112202,12.6165615 C61.8212348,12.9034861 62.4815166,13.3126187 63.0668256,13.8277115 C63.6413366,14.3275257 64.1190107,14.9424615 64.4730296,15.6379943 C64.8209868,16.3110253 65.0021664,17.0679917 64.9993517,17.8369616 C65.0069481,18.2301977 64.9477319,18.621644 64.8245806,18.9922785 C64.6930832,19.3541194 64.5303314,19.7020753 64.3384358,20.0316342 C64.1986289,20.2649816 64.0737928,20.5081996 63.9647873,20.7596126 C63.6772368,21.5904579 63.2587005,22.3625236 62.7273278,23.0423298 C62.1942122,23.7426345 61.5393319,24.3260114 60.7988194,24.760273 C60.0944914,25.1809297 59.3014546,25.4026573 58.4946537,25.4045018 C57.6483691,25.4063247 56.8183939,25.1557004 56.0980803,24.6808181 C55.4253619,24.2690961 54.8256216,23.7341118 54.3262632,23.1003103 C54.3017355,23.730377 54.2386563,24.3580521 54.1374301,24.9793108 C54.0128806,25.8683464 53.9459185,26.5125752 53.9365438,26.911997 C53.972263,27.2184029 54.0272971,27.5218808 54.1012706,27.8203595 C54.1812699,28.1404144 54.2290838,28.468683 54.2438998,28.7995871 C54.2526277,29.1211312 54.1362474,29.4321509 53.9224818,29.6585588 C53.7394948,29.8721405 53.4822461,29.9956543 53.2113443,30 C52.8894,29.9916871 52.6031962,29.7787085 52.484136,29.4588479 C52.1849896,28.6316566 52.0212217,27.7556094 52,26.8690484 C52.0101891,26.4216738 52.0417022,25.9751452 52.0944166,25.5312001 C52.146647,25.1017143 52.2290104,24.5176135 52.3415067,23.7788979 C52.454003,23.0380349 52.542393,22.4711136 52.5845791,22.0802815 C52.6321986,21.6987101 52.6563568,21.314211 52.6568982,20.9292595 C52.4316156,20.6011761 52.2822304,20.2207179 52.2209749,19.8190387 C52.2674043,19.4239838 52.4186725,19.0513978 52.6568982,18.7453242 L52.6568982,17.8863525 C52.6568982,15.9808671 52.5852487,14.1913429 52.4419498,12.5177798 C52.4419498,12.1727595 52.7272084,12.0002494 53.2977254,12.0002494 C53.5404747,11.9967913 53.7825012,12.029312 54.0168983,12.0968837 C54.2238112,12.1613066 54.3262632,12.238614 54.3262632,12.3266586 Z M58.1189963,14.450466 C57.2774877,14.6067064 56.4895366,14.9978545 55.8349192,15.5843085 C55.1117286,16.2041997 54.6831712,16.7940269 54.549247,17.3537901 C54.5291584,17.7832759 54.5030432,18.1977297 54.4769279,18.5971515 C54.4508127,18.9965734 54.4287152,19.370226 54.4146532,19.7116672 C54.7059383,20.2399348 54.9992323,20.7231063 55.2985529,21.1611819 C55.5975913,21.5987122 55.9457163,21.9953706 56.3351261,22.3422679 C56.7110967,22.6830387 57.1560671,22.925649 57.6348604,23.0509195 C57.8725424,23.1156799 58.1167888,23.1488576 58.3620687,23.1497325 C58.9138184,23.152512 59.4518263,22.9658244 59.89684,22.6171388 C60.3625227,22.2576363 60.7697288,21.8187147 61.1021577,21.3179442 C61.4860727,20.7379391 61.8375675,20.1341736 62.1548019,19.5098089 C62.5123795,18.8154735 62.7320151,18.4031671 62.8137089,18.2728898 C62.864591,18.136573 62.8865464,17.9898864 62.8779925,17.8434039 C62.8779925,17.4246553 62.6871505,16.9371889 62.3014489,16.3810047 C61.8935997,15.7999273 61.379672,15.3133779 60.790784,14.950817 C60.2034525,14.5664505 59.5288254,14.3614655 58.8401781,14.3581265 C58.5980694,14.3615659 58.3569894,14.3925197 58.1210052,14.450466 L58.1189963,14.450466 Z" id="Shape" fill="#000000" fill-rule="nonzero"></path>
                <path d="M75.6726583,11.0001474 C76.4225553,11.0981484 77.1466022,11.3466181 77.8039574,11.7315412 C78.475464,12.1143172 79.0483981,12.6573191 79.4748794,13.3151677 C79.9076573,13.9802783 80.1465919,14.7593845 80.1633898,15.5602287 C80.1634754,15.810938 80.199489,16.0602572 80.270263,16.3001025 C80.3592809,16.5935793 80.4642654,16.8816471 80.584717,17.1629351 C80.722419,17.4915324 80.8251818,17.76501 80.8950604,17.9812482 C80.9662393,18.2041981 81.0016445,18.4376414 80.9999414,18.6723624 C80.9999414,19.1472383 80.7813363,19.620701 80.3442522,20.0927503 C79.6771036,20.824406 78.9563183,21.5019771 78.18829,22.1194532 C77.4798797,22.6837795 76.69897,23.1439653 75.8679075,23.4868416 C75.0308075,23.8295742 74.1378061,24.0037245 73.2371815,23.9999396 C72.3360904,23.998216 71.4624871,23.6796471 70.7605996,23.0967649 C69.9927822,22.4792278 69.3620659,21.6992548 68.9108704,20.8093043 C68.4546532,19.9520948 68.1465629,19.019519 68.0003926,18.0533276 C67.9889597,16.9961207 68.227393,15.951957 68.6950687,15.0111534 C69.1286415,14.1260489 69.7844476,13.3771112 70.594124,12.8424117 C71.3809516,12.3187716 72.2987657,12.0432283 73.2351262,12.0495385 L73.7345531,12.0495385 C73.8579904,11.7053831 74.1138655,11.4291736 74.4415607,11.2863449 C74.8248194,11.0936485 75.2463164,10.9956616 75.6726583,11.0001474 L75.6726583,11.0001474 Z M77.4381221,14.816115 C77.3225311,14.4424781 77.0663216,14.132371 76.7270039,13.9554023 C76.28849,13.7361951 75.8317545,13.5581061 75.3623148,13.4232868 C75.2757335,13.8189454 75.0171721,14.1513483 74.661473,14.3242792 C74.1884717,14.5774846 73.6651743,14.7146056 73.1323635,14.7249558 C72.5237576,14.7880695 71.9359101,14.9877779 71.4100601,15.3100708 C70.9346333,15.5897258 70.5930163,16.0603279 70.4666982,16.6096198 C70.4187423,16.9021774 70.3673609,17.2908407 70.3125541,17.77561 C70.3341174,18.3762929 70.4947956,18.9629201 70.7811522,19.4864355 C71.0677488,20.0310455 71.4704112,20.5014783 71.9588131,20.8623038 C72.4259543,21.2186446 72.9776558,21.4383653 73.555746,21.4982984 C74.1469482,21.4802889 74.7268513,21.3267644 75.2533863,21.0488622 C75.8372641,20.7601032 76.3857616,20.4007137 76.8873138,19.9782713 C77.3251617,19.6175632 77.7290912,19.2151084 78.0937483,18.7762415 C78.2472226,18.5837745 78.3410316,18.3481446 78.3629867,18.0999672 C78.3363587,17.8429618 78.2668248,17.5926458 78.1574612,17.3600935 C78.0302331,17.0616046 77.9411123,16.7473407 77.8923333,16.4251814 C77.8203994,16.1559437 77.744355,15.8888259 77.6703658,15.6217082 L77.4381221,14.816115 Z" id="Shape" fill="#000000" fill-rule="nonzero"></path>
                <path d="M84.8976537,11.8193448 C84.9632131,11.9813529 85.0112023,12.1507761 85.040693,12.324337 C85.0845583,12.5514821 85.1303309,12.8414977 85.1799178,13.1943838 C85.2295047,13.5472699 85.261927,13.7561622 85.2752773,13.825117 C85.7970545,13.1833329 86.3842548,12.605165 87.0260774,12.101248 C87.6869889,11.5594273 88.4542625,11.1830139 89.2708397,11 C89.5047595,11.0025737 89.7154076,11.1511131 89.8086672,11.3792512 C89.9415205,11.6528399 90.0071288,11.9577216 89.9993861,12.2655226 C89.9993861,12.7360374 89.8811404,12.9976599 89.646556,13.0483619 C89.0993062,13.2477662 88.5845655,13.5365032 88.1208043,13.9042122 C87.5184602,14.3477217 86.965621,14.862799 86.4729924,15.4394696 C86.0438984,15.8984793 85.7224487,16.4584617 85.5346551,17.074103 C85.5540618,17.8816974 85.4765126,18.6886257 85.3038851,19.475351 C85.1968947,19.840665 85.1284508,20.2175011 85.0998158,20.598908 C85.0731152,20.9693708 85.0578577,21.4425897 85.0540433,22.0185647 C85.0502289,22.5945398 85.0349714,23.0522101 85.0082707,23.3915757 C85.0082707,23.7363495 84.7221923,23.9391576 84.1500354,24 C83.5867787,23.9432137 83.2460275,23.7735309 83.1277817,23.4909516 C83.049947,23.0275297 83.0072159,22.5582122 83,22.0875195 C83.0610301,20.7652106 83.1169743,19.8525741 83.1678327,19.34961 C83.1678327,19.1569423 83.141132,18.7939158 83.0858235,18.2564743 C83.1171853,17.5679572 83.2570851,16.889933 83.4996837,16.250702 C83.4170388,15.1609464 83.2504776,13.8332293 83,12.2675507 C83,12.0728549 83.127146,11.8984399 83.3814379,11.7443058 C83.629917,11.5910803 83.9123919,11.511259 84.1996223,11.5131045 C84.5848746,11.5090484 84.8156446,11.6124805 84.8976537,11.8193448 Z" id="Path" fill="#000000" fill-rule="nonzero"></path>
                <path d="M101.806761,7.11412261 C101.763823,8.02238304 101.743485,8.75805241 101.743485,9.31681595 C101.743485,10.7637043 101.799981,12.1034424 101.912975,13.3360302 C102.025969,14.5686179 102.195459,15.9270534 102.421446,17.4113365 C102.647433,18.8970578 102.798091,19.9354806 102.873421,20.526605 C102.95754,21.1280367 102.999065,21.7342006 102.997713,22.3409685 C103.014645,22.7356613 102.937369,23.1288642 102.771726,23.4908564 C102.594873,23.8012572 102.255964,23.9960408 101.885856,24 C101.510768,23.963128 101.158118,23.8118214 100.880213,23.5685224 C100.597639,23.3547005 100.431504,23.0303603 100.428239,22.6861506 C100.428239,22.0317428 100.281347,20.8315159 99.987564,19.0854697 C99.6937807,17.3394235 99.4602606,15.7832275 99.2870037,14.4168816 C99.097941,12.8412063 99.0021209,11.2566052 99,9.67062762 C99.064783,8.65234039 99.0971745,7.91019885 99.0971745,7.444203 C99.0903089,7.04891362 99.2358855,6.6650055 99.5062113,6.36550891 C99.7338452,6.13191341 100.053361,5.99973551 100.387561,6.0009103 C100.754137,5.98858083 101.113242,6.10183382 101.399984,6.32020375 C101.65976,6.5083072 101.81069,6.8028821 101.806761,7.11412261 L101.806761,7.11412261 Z" id="Path" fill="#000000" fill-rule="nonzero"></path>
                <path d="M112.666408,11.0000755 C113.417473,11.0984741 114.142705,11.3469147 114.801441,11.7315473 C115.472447,12.1149976 116.045021,12.6578984 116.471622,13.3151713 C116.905688,13.9798104 117.1449,14.7592092 117.160674,15.5602287 C117.16076,15.8109376 117.196802,16.0602565 117.267632,16.3001013 C117.35672,16.5935776 117.461787,16.881645 117.582333,17.1629326 C117.720144,17.4915293 117.825044,17.7650065 117.894978,17.9812444 C117.966213,18.2041939 118.001646,18.4376368 117.999941,18.6723574 C117.999941,19.1472326 117.779793,19.6199879 117.343736,20.0927431 C116.67489,20.8239404 115.952889,21.5014734 115.18402,22.1194427 C114.475052,22.6837682 113.693527,23.1439532 112.861811,23.4868289 C112.024109,23.8297633 111.130366,24.0039207 110.229014,23.999933 C109.330744,23.9957975 108.460455,23.6773658 107.760767,23.0967529 C106.992345,22.4792168 106.361132,21.699245 105.909581,20.8092959 C105.453606,19.9520008 105.145964,19.0194118 105.000444,18.0533236 C104.988283,16.9962857 105.226201,15.9521131 105.69361,15.0111543 C106.127524,14.1260512 106.783846,13.3771147 107.59416,12.8424161 C108.381607,12.3187767 109.300144,12.043234 110.237241,12.0495441 L110.735004,12.0495441 C110.857855,11.705664 111.113196,11.429445 111.440512,11.2863518 C111.822277,11.0948358 112.241835,10.9968862 112.666408,11.0000755 Z M114.433261,14.8161162 C114.318409,14.442005 114.061755,14.1316038 113.721583,13.9554049 C113.282724,13.736198 112.825629,13.5581093 112.35582,13.4232903 C112.269331,13.8183797 112.011477,14.1505859 111.656483,14.3242812 C111.182357,14.5774431 110.657991,14.7145515 110.124113,14.7249571 C109.515028,14.7880707 108.926718,14.9877788 108.400454,15.3100713 C107.92532,15.5905033 107.583679,16.0607674 107.45635,16.6096182 C107.409727,16.9021752 107.358305,17.290838 107.302084,17.7756064 C107.325203,18.3791663 107.488874,18.9681341 107.779279,19.4927891 C108.066746,20.036933 108.469608,20.5072283 108.957867,20.8686553 C109.425376,21.2249956 109.977511,21.4447159 110.556057,21.5046489 C111.148384,21.4866699 111.729419,21.3331526 112.25709,21.0552134 C112.840513,20.7659416 113.388704,20.4065839 113.890247,19.9846242 C114.32844,19.6239166 114.732687,19.2214625 115.097631,18.7825963 C115.251226,18.5901296 115.345109,18.3545001 115.367081,18.1063231 C115.340432,17.8493181 115.270844,17.5990025 115.161394,17.3664505 C115.034641,17.0679106 114.946137,16.7536326 114.898115,16.43154 C114.824067,16.1623027 114.75002,15.8951854 114.673915,15.6280681 C114.597811,15.3609507 114.509366,15.0811136 114.433261,14.8139962 L114.433261,14.8161162 Z" id="Shape" fill="#000000" fill-rule="nonzero"></path>
                <path d="M121.242455,11.714819 C121.258729,12.01104 121.428102,12.2749088 121.685111,12.4044428 C122.116876,12.6511073 122.571404,12.852107 123.041851,13.0044154 C123.643863,13.2159001 124.004628,13.3461623 124.124145,13.3952023 C125.129384,13.7862955 126.052303,14.3756364 126.842052,15.1307555 C127.509926,15.7544142 128.064003,16.4980895 128.477666,17.3260578 C128.782987,17.9035928 128.96137,18.54419 129,19.2018345 C128.985968,19.6450454 128.899914,20.0826055 128.745473,20.4960285 C128.605298,20.8239829 128.253387,21.218601 127.689738,21.6798827 C127.427862,21.8986795 127.18223,22.1376593 126.95493,22.3947927 C126.622938,22.753397 126.349229,23.0300128 126.133803,23.2246399 C125.874368,23.4477111 125.583178,23.627621 125.270624,23.757949 C124.874814,23.9262758 124.449949,24.0084273 124.022334,23.9993173 C121.34279,23.9993173 119.369282,22.9656479 118.101811,20.898309 C118.043354,20.7878065 118.008621,20.66547 118,20.5397047 C118.018887,20.2039569 118.181238,19.8945391 118.442656,19.6960649 C118.672406,19.4605189 118.976901,19.3199618 119.299195,19.3006806 C119.475203,19.2811013 119.64822,19.3587378 119.755131,19.505269 C120.19262,20.1772679 120.763051,20.7446483 121.42837,21.1695611 C122.038048,21.5904275 122.744753,21.834828 123.475654,21.8775748 C123.860359,21.8612596 124.23457,21.742524 124.562374,21.5327629 C124.939874,21.2649848 125.289273,20.9567974 125.604829,20.6132645 C125.890842,20.3070426 126.19384,20.0184412 126.512274,19.7489361 C126.67235,19.5924244 126.760857,19.3726405 126.755734,19.1443659 C126.755734,18.7459166 126.561704,18.2685437 126.173642,17.7122472 C125.284953,16.4978852 124.078718,15.5746329 122.698793,15.0525981 C122.311469,14.9146733 121.890946,14.7583586 121.439437,14.5928489 C121.027765,14.4446225 120.634104,14.2471341 120.266398,14.0043699 C119.937214,13.7839679 119.660894,13.4883286 119.458551,13.1400415 C119.244866,12.7481211 119.138478,12.3029557 119.150905,11.8527437 C119.135626,11.1143289 119.421863,10.4036712 119.938833,9.89651092 C120.465594,9.36779935 121.246881,9.06896238 122.282696,9 C123.024145,9 123.929376,9.04597492 124.993964,9.14482099 C125.726905,9.1848871 126.454592,9.29648489 127.167404,9.47813916 C127.293561,9.52411408 127.357746,9.72410497 127.357746,10.0827093 C127.353433,10.4131367 127.2778,10.7383496 127.136419,11.0343902 C126.988129,11.3585133 126.828773,11.5217243 126.660563,11.5217243 C126.534406,11.5079318 126.206841,11.4573594 125.682294,11.3700071 C125.157746,11.2826547 124.661972,11.2090949 124.20161,11.1401325 C123.768389,11.0840948 123.332337,11.0549256 122.895775,11.0527801 C121.837827,11.0780663 121.28672,11.2918497 121.242455,11.714819 Z" id="Path" fill="#000000" fill-rule="nonzero"></path>
                <path d="M148.762596,12.4033825 C148.987869,12.6690968 149.111258,13.0097174 149.109776,13.36179 C149.110986,13.6880679 148.973703,13.9987452 148.733664,14.2129472 C148.481666,14.4508382 148.158413,14.5940358 147.816751,14.6191294 C147.630728,14.5875351 147.44962,14.5307513 147.278176,14.4502671 C147.149096,14.3840914 146.930996,14.2585856 146.6261,14.0737499 C146.372265,13.9182656 146.10743,13.7824918 145.833816,13.6675676 C145.601024,13.5789814 145.354367,13.5348964 145.106073,13.537498 C144.92358,13.537498 144.360525,13.6036738 143.421357,13.7383072 C142.585253,13.8711837 141.850712,14.3799837 141.418393,15.1257162 C140.950205,15.9525404 140.704449,16.8919712 140.706228,17.84805 C140.754755,18.1502312 140.786704,18.4549667 140.801925,18.7608191 C140.983806,19.8942729 141.474483,20.9519173 142.217353,21.8117497 C143.018539,22.7990616 144.19732,23.3026059 145.753698,23.3223826 C146.117199,23.2904357 146.687673,23.2067652 147.46512,23.0713711 C148.001315,22.9731973 148.511521,22.7609888 148.962892,22.4484062 C149.453268,22.0705164 149.924225,21.6668359 150.373869,21.2389871 C150.764118,20.83553 151.214946,20.498855 151.709179,20.2417869 C151.938152,20.1656017 152.178644,20.1323626 152.419118,20.1436643 C152.837244,20.1287441 153.244518,20.2818627 153.554132,20.5703838 C153.850332,20.8539845 154.0126,21.2549637 153.999235,21.6702705 C153.999235,22.2863897 153.665407,22.8523065 152.997753,23.368021 C152.701017,23.5688302 152.379059,23.7863735 152.031879,24.0206509 C151.684698,24.2549283 151.347162,24.4603014 151.019269,24.63677 C150.673002,24.825452 150.313735,24.9879022 149.944345,25.1228196 C149.245868,25.3973746 148.529784,25.6222954 147.801173,25.7959868 C146.888281,25.9540289 145.962547,26.0205186 145.037082,25.9945141 C143.747835,26.0049113 142.490524,25.5834645 141.456226,24.7942227 C140.385537,23.9903066 139.525423,22.9273059 138.952521,21.6999355 C138.364584,20.4969708 138.039527,19.1770287 138,17.8320766 C138.023866,16.8441951 138.212807,15.8678295 138.558605,14.9454443 C138.886028,14.0442916 139.420395,13.2372972 140.116466,12.592782 C140.877057,11.9068927 141.804493,11.4448261 142.800438,11.2555753 C143.555118,11.0925901 144.323737,11.0069769 145.094945,11 C146.820462,11 148.043012,11.4677942 148.762596,12.4033825 Z" id="Path" fill="#000000" fill-rule="nonzero"></path>
                <path d="M160.82686,7.85102999 C160.668111,8.6906148 160.569524,9.5403815 160.531847,10.3938979 C160.587941,11.3394558 160.64819,12.0491415 160.71675,12.5043335 C161.556544,12.0316859 162.507046,11.7889648 163.471591,11.8008549 C164.075555,11.7988577 164.675947,11.8931581 165.249979,12.0801773 C165.800844,12.256991 166.316278,12.5287099 166.772829,12.8829704 C167.212875,13.22613 167.574733,13.6584418 167.834461,14.1513008 C168.101593,14.662885 168.243942,15.2299518 168.249972,15.8065444 C168.249972,16.5169197 168.232659,17.1066002 168.198033,17.5755859 C168.267285,18.8997808 168.45842,19.8163719 168.771439,20.3253593 C168.918647,20.5638577 168.997666,20.8378619 169,21.1178071 C169.002308,21.4689847 168.867464,21.8073119 168.623932,22.061296 C168.388082,22.3281371 168.05386,22.4885937 167.697342,22.5061427 C167.04863,22.4001684 166.482383,22.0087619 166.155794,21.4405796 C165.799656,20.8167942 165.60676,20.1138259 165.594854,19.3963538 C165.594854,19.0818576 165.619785,18.6287346 165.665491,18.0369851 C165.711197,17.4452355 165.73405,16.9817673 165.73405,16.6465805 C165.76383,15.9741448 165.56632,15.3111875 165.17311,14.7637409 C164.79915,14.2775131 164.231976,14.0354338 163.475746,14.0354338 C162.992226,14.0394857 162.514518,14.1408295 162.071317,14.3333776 C161.615596,14.5205204 161.205423,14.8027273 160.868411,15.1609994 C160.549198,15.494698 160.338495,15.9165423 160.263842,16.3713962 C160.173815,16.9300409 160.092098,17.5369636 160.018691,18.1921641 C159.945284,18.8473647 159.876032,19.4198031 159.810935,19.9094793 C159.748608,20.3950175 159.659273,20.9226263 159.54293,21.492306 C159.425282,22.0563083 159.277566,22.6136728 159.10041,23.1620329 C159.008968,23.6344648 158.602562,23.9817541 158.119803,24 C157.814004,23.9071874 157.544682,23.7221088 157.34903,23.4703221 C157.181265,23.1758094 157.093879,22.8426735 157.095568,22.5040736 C157.129852,21.9567472 157.199245,21.4121643 157.303323,20.8736587 C157.427977,20.1701802 157.551938,19.4480802 157.675206,18.7073587 C157.798474,17.9666372 157.885039,17.249365 157.934901,16.5555421 C157.680467,16.5341377 157.44677,16.4072564 157.290858,16.2058719 C157.116027,15.9871902 157.014318,15.7194894 157,15.4403217 C157.052631,14.7589131 157.425207,14.1988891 158.117726,13.7602495 C158.117726,13.6609349 158.117726,13.5057558 158.140579,13.2947123 C158.163432,13.0836687 158.163432,12.9140062 158.163432,12.7857249 C158.163432,12.2932899 158.121881,11.6167091 158.042934,10.7539134 C157.963987,9.89111768 157.920358,9.23522742 157.912048,8.78831166 C157.957754,8.11931738 158.001383,7.63653801 158.042934,7.33997354 C158.095178,7.01478742 158.226406,6.70723727 158.425204,6.44407296 C158.658549,6.13975766 159.03079,5.97386916 159.414121,6.00336436 C159.663317,6.00283339 159.909287,6.05947227 160.132956,6.16888872 C160.356555,6.27809634 160.544549,6.44810459 160.675199,6.65925462 C160.817613,6.89198272 160.889737,7.16062391 160.882954,7.43308099 C160.886267,7.57445872 160.86734,7.71548163 160.82686,7.85102999 L160.82686,7.85102999 Z" id="Path" fill="#000000" fill-rule="nonzero"></path>
                <path d="M174.40732,11.2154269 C174.768501,11.7756572 174.95679,12.4222287 174.950452,13.0805042 C174.950762,13.6000556 174.90702,14.1187741 174.819657,14.6315527 C174.730982,15.1365452 174.597971,15.7921867 174.402886,16.5984773 C174.207802,17.4047678 174.074791,18.041313 173.99055,18.5081128 C173.907333,18.983774 173.859918,19.4645415 173.84867,19.9467049 C173.887127,20.2602414 173.948612,20.5707954 174.03267,20.8760609 C174.126123,21.211741 174.18186,21.5560123 174.198935,21.9030205 C174.197879,22.2071834 174.040324,22.4913216 173.777731,22.6626311 C173.49436,22.8660011 173.153859,22.9835033 172.800094,23 C171.662103,22.888251 171.062072,22.0260859 171,20.4135047 C171.078979,19.55905 171.204774,18.7091533 171.376867,17.867324 C171.592642,16.71447 171.733782,15.9400067 171.800288,15.5439341 C171.874157,15.0421446 171.907509,14.5356522 171.900047,14.0289566 C171.900047,13.7361458 171.866794,13.207106 171.800288,12.4418372 C171.800288,11.8498502 171.93995,11.4085122 172.219275,11.1135796 C172.475348,10.8295225 172.849289,10.6680364 173.24125,10.6721615 C173.799899,10.6807289 174.190068,10.8589616 174.40732,11.2154269 Z M174.604621,6.04667998 C174.866211,6.10821268 174.997006,6.51135796 174.997006,7.26035946 C175.017623,7.75352981 174.931585,8.24546012 174.744284,8.70531702 C174.575802,9.06602596 174.211497,9.29942586 173.65137,9.40551672 C173.38598,9.37896053 173.142618,9.25218673 172.975226,9.05329506 C172.733069,8.81440606 172.531144,8.54096923 172.376673,8.24276086 C172.247157,8.02634267 172.16636,7.78639227 172.139468,7.53831752 C172.160646,7.27256137 172.290492,7.02552717 172.500817,6.85084873 C172.758467,6.60320502 173.058346,6.39941977 173.387563,6.24825262 C173.669465,6.10089542 173.982362,6.0160545 174.303128,6 C174.365121,6.00009188 174.426885,6.00721425 174.487127,6.02121817 C174.525432,6.03300217 174.564749,6.04152259 174.604621,6.04667998 L174.604621,6.04667998 Z" id="Shape" fill="#000000" fill-rule="nonzero"></path>
                <path d="M186.766228,12.4116511 C186.990021,12.6779598 187.112521,13.0180575 187.111228,13.3694758 C187.113333,13.695751 186.975871,14.0066044 186.735067,14.2201154 C186.483231,14.4581697 186.159826,14.601329 185.818034,14.6260506 C185.63207,14.5941131 185.450984,14.5373782 185.279389,14.457291 C185.150292,14.3911555 184.932163,14.2657261 184.627228,14.0810027 C184.37361,13.9251452 184.108705,13.7894359 183.83484,13.6750675 C183.602018,13.5865351 183.355329,13.542477 183.107001,13.545077 C182.924485,13.545077 182.36284,13.6119727 181.422066,13.7457641 C180.585618,13.8779467 179.850748,14.3865985 179.418839,15.1323294 C178.948589,15.9577967 178.702653,16.8972234 178.706581,17.8530076 C178.753963,18.1551643 178.78591,18.4596504 178.802291,18.7652216 C178.983259,19.8982865 179.474118,20.9555423 180.217904,21.8142968 C181.016227,22.8010083 182.195163,23.3042463 183.754711,23.3240109 C184.115292,23.2920835 184.685099,23.2084638 185.464131,23.0731521 C186.00108,22.9750175 186.512075,22.7629527 186.964325,22.4505661 C187.45352,22.0722175 187.923763,21.6688097 188.373261,21.2418825 C188.76356,20.8386707 189.214447,20.5022005 189.708745,20.2452887 C189.937834,20.1695365 190.178288,20.1363271 190.418777,20.1472257 C190.836957,20.1323147 191.244284,20.2853402 191.553939,20.5736858 C191.851165,20.8564108 192.013651,21.2576294 191.9991,21.6729036 C191.9991,22.2886481 191.665229,22.8542207 190.997487,23.3696216 C190.700713,23.5703087 190.378713,23.7877197 190.031487,24.0218546 C189.682035,24.2499081 189.343712,24.4597174 189.02097,24.6375991 C188.67369,24.8257408 188.313667,24.9880767 187.94368,25.123353 C187.245112,25.397741 186.528934,25.6225251 185.800228,25.7961108 C184.887217,25.9540568 183.961361,26.0205061 183.035776,25.9945174 C181.746361,26.0049083 180.488885,25.5837178 179.454452,24.794956 C178.384828,23.9902188 177.524876,22.9282037 176.95042,21.7025506 C176.362027,20.5005745 176.037625,19.1811793 176,17.8370438 C176.012489,16.8483072 176.191708,15.8692247 176.529742,14.943045 C176.861676,14.0408099 177.401557,13.2341576 178.103388,12.5918134 C178.864078,11.9063412 179.791636,11.4445556 180.787711,11.2554199 C181.543241,11.0925325 182.312699,11.0069721 183.084743,11 C184.807518,11.0060814 186.034679,11.4766318 186.766228,12.4116511 Z" id="Path" fill="#000000" fill-rule="nonzero"></path>
                <path d="M202.6676,11.0000625 C203.418138,11.0984498 204.142814,11.3469 204.800923,11.7315234 C205.472459,12.1143728 206.045252,12.6573952 206.471374,13.3151539 C206.90551,13.9797957 207.144762,14.7591977 207.160538,15.5602205 C207.161291,15.8110361 207.198032,16.0603582 207.26957,16.300096 C207.35683,16.5942235 207.461955,16.882404 207.584323,17.1629309 C207.720098,17.4915289 207.825016,17.7650073 207.894961,17.981246 C207.966207,18.2041965 208.001646,18.4376403 207.999941,18.6723619 C207.999941,19.147239 207.781129,19.6207029 207.34363,20.0927534 C206.675646,20.8249718 205.95345,21.5025816 205.183563,22.1194612 C204.475502,22.6842147 203.69447,23.144445 202.863035,23.4868531 C202.025083,23.8293848 201.131272,24.003528 200.229811,23.9999458 C199.331396,23.9958237 198.460965,23.6773908 197.761164,23.0967754 C196.99275,22.4790947 196.361461,21.6991521 195.909678,20.8093091 C195.454699,19.9515254 195.147073,19.0191298 195.000393,18.0533256 C194.988949,16.996116 195.227609,15.9519497 195.695729,15.0111438 C196.129563,14.1265964 196.785169,13.3777858 197.59453,12.8423967 C198.382892,12.318811 199.302215,12.0432903 200.240097,12.0495215 L200.735884,12.0495215 C200.858754,11.70564 201.114137,11.4294199 201.441505,11.286326 C201.823432,11.0950994 202.24299,10.9971649 202.6676,11.0000625 L202.6676,11.0000625 Z M204.432683,14.8161049 C204.318505,14.4422583 204.06254,14.1318435 203.722947,13.9553901 C203.283289,13.7362216 202.825441,13.5581357 202.354905,13.4232733 C202.26926,13.818789 202.011096,14.1513414 201.655455,14.3242679 C201.181252,14.5774309 200.656801,14.7145398 200.122836,14.7249455 C199.514374,14.788429 198.926715,14.9881229 198.400955,15.310062 C197.924629,15.5896675 197.582019,16.0601651 197.45464,16.6096142 C197.406638,16.9021724 197.355208,17.2908368 197.300349,17.7756072 C197.321933,18.3762916 197.482764,18.9629203 197.769392,19.486437 C198.056906,20.0305831 198.459834,20.5008803 198.948171,20.8623088 C199.41615,21.2179124 199.968172,21.4375528 200.546621,21.498305 C201.139083,21.4806086 201.720272,21.327075 202.24793,21.0488676 C202.831448,20.7595947 203.379728,20.4002355 203.881352,19.978274 C204.319615,19.617565 204.723928,19.2151093 205.088932,18.7762412 C205.243446,18.5843266 205.337463,18.3483981 205.358426,18.0999653 C205.331091,17.8430968 205.261524,17.5928978 205.152705,17.3600897 C205.025356,17.0616001 204.936151,16.7473354 204.887325,16.4251753 C204.813266,16.1559369 204.739207,15.8888185 204.66309,15.6217001 C204.586973,15.3545817 204.510857,15.0811033 204.432683,14.8139849 L204.432683,14.8161049 Z" id="Shape" fill="#000000" fill-rule="nonzero"></path>
                <path d="M213.240894,11.7148242 C213.257633,12.0108854 213.426898,12.2745344 213.683639,12.4044493 C214.115491,12.6511144 214.570111,12.8521145 215.040652,13.0044232 C215.642785,13.2159082 216.003622,13.3461707 216.123164,13.3952108 C217.128999,13.7868737 218.052729,14.3761354 218.843832,15.1307673 C219.510586,15.7550682 220.063946,16.49864 220.477561,17.3260739 C220.782943,17.90361 220.961362,18.5442084 221,19.2018542 C220.98704,19.6451966 220.900931,20.0829442 220.745422,20.4960507 C220.606695,20.8240058 220.254713,21.2186246 219.689475,21.6799072 C219.428058,21.8993165 219.182419,22.1382557 218.954518,22.3948185 C218.622459,22.7534236 218.350171,23.0292737 218.133226,23.2246674 C217.874231,23.4472645 217.583784,23.6271405 217.272087,23.7579775 C216.875368,23.9261121 216.449735,24.0082502 216.021332,23.9993463 C213.342725,23.9993463 211.36882,22.9656749 210.099618,20.898332 C210.042675,20.787326 210.008742,20.6651712 210,20.539727 C210.018583,20.2038872 210.181033,19.894341 210.442745,19.6960856 C210.673104,19.4600298 210.978535,19.319432 211.30167,19.3007005 C211.477578,19.2820428 211.650213,19.3594921 211.757698,19.5052893 C212.195275,20.1772895 212.765821,20.744671 213.431274,21.1695846 C214.040246,21.5904681 214.746389,21.8348896 215.476756,21.8775997 C215.862162,21.8608601 216.237063,21.742171 216.565909,21.5327871 C216.942245,21.2642451 217.290907,20.9561149 217.606359,20.613287 C217.893493,20.3082016 218.196488,20.0196602 218.513987,19.7489568 C218.674096,19.5924448 218.76262,19.3726606 218.757496,19.1443855 C218.757496,18.7459354 218.563427,18.2685616 218.175287,17.712264 C217.287664,16.4965889 216.080778,15.5730232 214.699738,15.0526098 C214.312336,14.9146848 213.893942,14.7583697 213.442343,14.5928597 C213.029715,14.4450696 212.635194,14.2475618 212.266854,14.0043796 C211.938209,13.7839574 211.66256,13.4882847 211.461059,13.1400495 C211.246372,12.7485258 211.139894,12.3030763 211.153351,11.8527492 C211.136948,11.114113 211.423426,10.4030003 211.941437,9.89651265 C212.466828,9.36780006 213.247535,9.06896251 214.283558,9 C215.02737,9 215.93057,9.04597501 216.997585,9.14482127 C217.730635,9.18529143 218.458432,9.29688389 219.171463,9.47814008 C219.297645,9.52411509 219.35963,9.72410637 219.35963,10.0827114 C219.355391,10.4131493 219.279739,10.7383799 219.138257,11.0343941 C218.989938,11.3585179 218.830549,11.5217292 218.660093,11.5217292 C218.53391,11.5079367 218.217348,11.4573642 217.681626,11.3700117 C217.145905,11.2826591 216.663313,11.2090991 216.202858,11.1401366 C215.768815,11.0840239 215.331935,11.0548546 214.894546,11.0527841 C213.834172,11.0780704 213.282954,11.2918541 213.240894,11.7148242 Z" id="Path" fill="#000000" fill-rule="nonzero"></path>
                <path d="M50.7649492,34 L51.3200451,36.0218103 C51.430613,36.4580153 51.5456939,36.8942203 51.6179015,37.302072 L51.6427228,37.302072 C51.7374953,36.8964013 51.8683716,36.4667394 52.0105303,36.0305344 L52.6874765,34 L53.319293,34 L53.9601354,35.997819 C54.1135765,36.4667394 54.2331704,36.8964013 54.3279428,37.306434 L54.3527642,37.306434 C54.4334128,36.8686012 54.5388743,36.4353791 54.6686724,36.0087241 L55.2576156,34.0043621 L56,34.0043621 L54.6686724,38 L53.9917262,38 L53.3599097,36.0916031 C53.2154945,35.6379498 53.0959007,35.2431843 52.9943588,34.7720829 L52.9763069,34.7720829 C52.8778098,35.2213856 52.7527457,35.6648612 52.60173,36.1003272 L51.9247838,38 L51.2478375,38 L50,34.0043621 L50.7649492,34 Z" id="Path" fill="#000000" fill-rule="nonzero"></path>
                <path d="M62.7511312,34 L63.3076923,36.0240175 C63.418552,36.4606987 63.5339367,36.8973799 63.6085973,37.3056769 L63.6334842,37.3056769 C63.7285068,36.8995633 63.8597285,36.4694323 64.0022624,36.0327511 L64.6809955,34 L65.3122172,34 L65.9547511,36 C66.1085973,36.4694323 66.2285068,36.8995633 66.321267,37.3100437 L66.3484163,37.3100437 C66.4281981,36.8715183 66.5339521,36.4377652 66.6651584,36.010917 L67.2556561,34.0043668 L68,34.0043668 L66.6696833,38 L65.9909502,38 L65.3574661,36.0895197 C65.2104072,35.6353712 65.0927602,35.2401747 64.9886878,34.768559 L64.9728507,34.768559 C64.8722994,35.2181486 64.7461657,35.6620523 64.5950226,36.0982533 L63.9276018,38 L63.2488688,38 L62,34 L62.7511312,34 Z" id="Path" fill="#000000" fill-rule="nonzero"></path>
                <path d="M71.7646617,34 L72.3195489,36.0218103 C72.4300752,36.4580153 72.5451128,36.8942203 72.6172932,37.302072 L72.6443609,37.302072 C72.7368421,36.8964013 72.8699248,36.4667394 73.0097744,36.0305344 L73.6864662,34 L74.3180451,34 L74.9586466,35.997819 C75.1120301,36.4667394 75.2315789,36.8964013 75.3263158,37.306434 L75.3511278,37.306434 C75.4317461,36.8686012 75.537168,36.4353791 75.6669173,36.0087241 L76.2556391,34.0043621 L77,34.0043621 L75.6669173,38 L74.9902256,38 L74.3586466,36.0916031 C74.2142857,35.6379498 74.0947368,35.2431843 73.9932331,34.7720829 L73.975188,34.7720829 C73.876728,35.2213856 73.7517108,35.6648612 73.6007519,36.1003272 L72.9240602,38 L72.2473684,38 L71,34.0043621 L71.7646617,34 Z" id="Path" fill="#000000" fill-rule="nonzero"></path>
                <path d="M82.4867337,37 C82.3509952,36.9985995 82.2218973,36.9442322 82.1299801,36.8497594 C82.0380629,36.7552867 81.9914915,36.6291007 82.0012831,36.5010526 C81.9933195,36.3703787 82.0428704,36.2424109 82.1381814,36.1475053 C82.2334924,36.0525997 82.3660709,35.9992127 82.504467,36 C82.7831771,36.0170858 83,36.2358614 83,36.5 C83,36.7641474 82.7831771,36.9829229 82.504467,37 L82.4867337,37 Z" id="Path" fill="#000000" fill-rule="nonzero"></path>
                <path d="M88.0341686,35.4698246 C88.0341686,34.9324237 88.0341686,34.5002161 88,34.0977372 L88.6833713,34.0977372 L88.7266515,34.8157963 L88.7494305,34.8157963 C89.0496568,34.2883403 89.618734,33.9739913 90.2232346,34.001691 C91.2414579,34.001691 92,34.8592457 92,36.1307134 C92,37.6377228 91.0774487,38.3809368 90.1025057,38.3809368 C89.5888432,38.4053525 89.1004657,38.1558623 88.8177677,37.7246216 L88.8018223,37.7246216 L88.8018223,40 L88.0432802,40 L88.0341686,35.4698246 Z M88.7927107,36.5857891 C88.7911848,36.6904804 88.8026628,36.7949545 88.8268793,36.8967956 C88.9539188,37.4236919 89.4258507,37.7932383 89.9658314,37.7886524 C90.7676538,37.7886524 91.2323462,37.1300504 91.2323462,36.1695892 C91.2323462,35.330329 90.8018223,34.61227 90,34.61227 C89.4476802,34.6233314 88.972716,35.0079863 88.8451025,35.5475762 C88.8223833,35.6499107 88.8079098,35.7539156 88.8018223,35.8585827 L88.7927107,36.5857891 Z" id="Shape" fill="#000000" fill-rule="nonzero"></path>
                <path d="M99.9620112,38 C98.8625698,38 98,37.2417755 98,36.032376 C98,34.7519582 98.9050279,34 100.02905,34 C101.204469,34 102,34.8 102,35.9613577 C102,37.383812 100.943017,38 99.9709497,38 L99.9620112,38 Z M99.9865922,37.4778068 C100.697207,37.4778068 101.22905,36.8511749 101.22905,35.9843342 C101.22905,35.3368146 100.882682,34.5221932 100.004469,34.5221932 C99.126257,34.5221932 98.7530726,35.2804178 98.7530726,36.0073107 C98.7530726,36.8428198 99.2603352,37.4694517 99.9776536,37.4694517 L99.9865922,37.4778068 Z" id="Shape" fill="#000000" fill-rule="nonzero"></path>
                <path d="M108.032609,35.306302 C108.032609,34.8473915 108.032609,34.452515 108,34.0875211 L108.632609,34.0875211 L108.665217,34.8537949 L108.691304,34.8537949 C108.834726,34.3633679 109.282859,34.0189439 109.802174,34 C109.868994,33.9997005 109.935546,34.0083174 110,34.0256216 L110,34.6873065 C109.914891,34.6768552 109.829246,34.6711542 109.743478,34.6702307 C109.234783,34.6702307 108.873913,35.0501659 108.773913,35.5752449 C108.755919,35.6874969 108.747195,35.8009932 108.747826,35.9146253 L108.747826,38 L108.023913,38 L108.032609,35.306302 Z" id="Path" fill="#000000" fill-rule="nonzero"></path>
                <polygon id="Path" fill="#000000" fill-rule="nonzero" points="115 32 116 32 116 38 115 38"></polygon>
                <path d="M122.963149,38 C121.864322,38 121,37.2417755 121,36.032376 C121,34.7519582 121.906756,34 123.030151,34 C124.204913,34 125,34.8 125,35.9613577 C125,37.383812 123.943607,38 122.969849,38 L122.963149,38 Z M122.987716,37.4778068 C123.697934,37.4778068 124.229481,36.8511749 124.229481,35.9843342 C124.229481,35.3368146 123.883305,34.5221932 123.00335,34.5221932 C122.123395,34.5221932 121.754886,35.2804178 121.754886,36.0073107 C121.754886,36.8428198 122.259631,37.4694517 122.978783,37.4694517 L122.987716,37.4778068 Z" id="Shape" fill="#000000" fill-rule="nonzero"></path>
                <path d="M131.128763,37.2104396 C131.353739,37.3742437 131.607643,37.4660722 131.867893,37.4777579 C132.267559,37.4777579 132.456522,37.2334123 132.456522,36.9097065 C132.456522,36.5860007 132.299331,36.395954 131.892977,36.2059074 C131.33612,35.953208 131.076923,35.5793801 131.076923,35.1241035 C131.076923,34.4975762 131.481605,34.0005311 132.133779,34.0005311 C132.395733,33.992537 132.654378,34.074917 132.881271,34.2386115 L132.747492,34.7356566 C132.558064,34.5949558 132.342444,34.518635 132.122074,34.5142836 C131.787625,34.5142836 131.620401,34.752364 131.620401,35.0363897 C131.620401,35.3600955 131.797659,35.5021084 132.195652,35.692155 C132.722408,35.9365007 133,36.2685602 133,36.8470537 C133,37.5257917 132.575251,37.9998641 131.861204,37.9998641 C131.56057,38.0040384 131.264087,37.9120099 131,37.7325457 L131.128763,37.2104396 Z" id="Path" fill="#000000" fill-rule="nonzero"></path>
                <path d="M140.97787,37.7784279 C140.519896,37.9287833 140.024951,38.0042336 139.525588,37.9998167 C137.995851,37.9998167 137,37.2186902 137,36.0407347 C137,34.8627793 138.067773,34.0001984 139.721992,34.0001984 C140.163463,33.9957187 140.600497,34.0671406 141,34.2090558 L140.789765,34.7374649 C140.458784,34.6120761 140.092214,34.5496959 139.721992,34.555759 C138.560166,34.555759 137.932227,35.2115711 137.932227,36.0177604 C137.932227,36.9033156 138.687414,37.4484333 139.691563,37.4484333 C140.08187,37.4519201 140.468324,37.3898545 140.82296,37.2667274 L140.97787,37.7784279 Z" id="Path" fill="#000000" fill-rule="nonzero"></path>
                <path d="M146,32 L146.854394,32 L146.854394,34.5522888 L146.872354,34.5522888 C147.013933,34.3293004 147.226995,34.1469753 147.485568,34.02754 C147.747806,33.8871617 148.050055,33.8136632 148.357922,33.8154075 C148.989096,33.8154075 150,34.1548195 150,35.5660588 L150,38 L149.145606,38 L149.145606,35.6509118 C149.145606,34.9810197 148.863374,34.4317082 148.057729,34.4317082 C147.53267,34.4442023 147.07343,34.7428428 146.91084,35.1775214 C146.864653,35.291334 146.845451,35.412113 146.854394,35.5325642 L146.854394,38 L146,38 L146,32 Z" id="Path" fill="#000000" fill-rule="nonzero"></path>
                <path d="M156.311997,32.9886784 C156.136165,32.9810785 155.997055,32.756928 156.000047,32.4860292 C156.00304,32.2151305 156.147021,31.9983994 156.322918,32.0000089 C156.498816,32.0016364 156.641106,32.2210016 156.641997,32.491936 C156.644532,32.6252439 156.611161,32.7542311 156.549794,32.8483154 C156.488428,32.9423996 156.404532,32.9932023 156.317997,32.9886784 L156.311997,32.9886784 Z M156.073497,38 L156.073497,33.7672931 L156.572997,33.7672931 L156.572997,38 L156.073497,38 Z" id="Shape" fill="#000000" fill-rule="nonzero"></path>
                <path d="M165.97787,37.7784162 C165.518992,37.9289381 165.023099,38.0043886 164.522822,37.9998028 C162.993084,37.9998028 162,37.2186841 162,36.0407404 C162,34.8627967 163.062241,34.0002244 164.721992,34.0002244 C165.163502,33.9954509 165.600623,34.0668862 166,34.2090797 L165.792531,34.7374835 C165.460417,34.6124016 165.093055,34.5500488 164.721992,34.5557794 C163.562932,34.5557794 162.932227,35.211585 162.932227,36.0177663 C162.932227,36.9033127 163.687414,37.4484249 164.691563,37.4484249 C165.081907,37.4521921 165.468441,37.3901141 165.82296,37.2667208 L165.97787,37.7784162 Z" id="Path" fill="#000000" fill-rule="nonzero"></path>
                <path d="M172.963108,38 C171.863052,38 171,37.2417755 171,36.032376 C171,34.7519582 171.894354,34 173.030184,34 C174.20626,34 175,34.8 175,35.9613577 C175,37.383812 173.942426,38 172.969816,38 L172.963108,38 Z M172.987703,37.4778068 C173.698714,37.4778068 174.230855,36.8511749 174.230855,35.9843342 C174.230855,35.3368146 173.884293,34.5221932 173.00559,34.5221932 C172.126887,34.5221932 171.751258,35.2804178 171.751258,36.0073107 C171.751258,36.8428198 172.26104,37.4694517 172.978759,37.4694517 L172.987703,37.4778068 Z" id="Shape" fill="#000000" fill-rule="nonzero"></path>
                <path d="M180.128763,37.2104316 C180.353739,37.3742374 180.607643,37.4660668 180.867893,37.4777527 C181.267559,37.4777527 181.456522,37.2334045 181.456522,36.9096955 C181.456522,36.5859864 181.299331,36.3959379 180.892977,36.2058893 C180.33612,35.9531874 180.076923,35.5793557 180.076923,35.1240745 C180.076923,34.4975409 180.481605,34.0004908 181.133779,34.0004908 C181.395703,33.9928204 181.65428,34.0751793 181.881271,34.2385736 L181.747492,34.7356237 C181.558189,34.5945596 181.34249,34.5182101 181.122074,34.5142484 C180.787625,34.5142484 180.620401,34.7523312 180.620401,35.0363598 C180.620401,35.3600689 180.797659,35.5020832 181.195652,35.6921317 C181.720736,35.9364799 182,36.2685427 182,36.8470421 C182,37.5257869 181.576923,37.9998641 180.861204,37.9998641 C180.56057,38.0040384 180.264087,37.912009 180,37.732543 L180.128763,37.2104316 Z" id="Path" fill="#000000" fill-rule="nonzero"></path>
                <path d="M187.48895,37 C187.352824,36.9991751 187.223141,36.9450579 187.130738,36.8505168 C187.038335,36.7559758 186.991468,36.629458 187.001282,36.5010485 C186.993976,36.3705348 187.043747,36.2429239 187.138916,36.1481592 C187.234085,36.0533945 187.366274,35.9998177 187.504466,36 C187.783177,36.0170777 188,36.2358551 188,36.5 C188,36.7641454 187.783177,36.9829228 187.504466,37 L187.48895,37 Z" id="Path" fill="#000000" fill-rule="nonzero"></path>
                <path d="M196.97787,37.7784148 C196.518992,37.9289377 196.023099,38.0043887 195.522822,37.9998028 C193.993084,37.9998028 193,37.218679 193,36.0407277 C193,34.8627763 194.067773,34.0001984 195.721992,34.0001984 C196.163463,33.9957187 196.600497,34.0671404 197,34.2090551 L196.789765,34.7374623 C196.458558,34.6125517 196.092146,34.5501986 195.721992,34.5557571 C194.560166,34.5557571 193.932227,35.2115669 193.932227,36.0177534 C193.932227,36.9033055 194.684647,37.4484213 195.688797,37.4484213 C196.079178,37.4524713 196.465794,37.3903798 196.820194,37.2667161 L196.97787,37.7784148 Z" id="Path" fill="#000000" fill-rule="nonzero"></path>
                <path d="M204.962011,38 C203.86257,38 203,37.2417755 203,36.032376 C203,34.7519582 203.893855,34 205.02905,34 C206.204469,34 207,34.8 207,35.9613577 C207,37.383812 205.943017,38 204.97095,38 L204.962011,38 Z M204.986592,37.4778068 C205.697207,37.4778068 206.231285,36.8511749 206.231285,35.9843342 C206.231285,35.3368146 205.882682,34.5221932 205.004469,34.5221932 C204.126257,34.5221932 203.753073,35.2804178 203.753073,36.0073107 C203.753073,36.8428198 204.260335,37.4694517 204.979888,37.4694517 L204.986592,37.4778068 Z" id="Shape" fill="#000000" fill-rule="nonzero"></path>
                <path d="M211.034169,35.1484038 C211.034169,34.7398232 211.018223,34.4180396 211,34.0899049 L211.665148,34.0899049 L211.699317,34.7144193 L211.724374,34.7144193 C211.981883,34.2625325 212.493307,33.9858907 213.04328,34.000991 C213.573211,33.9991482 214.0453,34.3118052 214.216401,34.7779292 L214.232346,34.7779292 C214.349693,34.5797813 214.512169,34.4078297 214.708428,34.2740837 C214.967845,34.0857816 215.290677,33.9890225 215.61959,34.000991 C216.182232,34.000991 217,34.3375936 217,35.6840043 L217,37.968245 L216.259681,37.968245 L216.259681,35.7813862 C216.259681,35.027735 215.95672,34.5873994 215.348519,34.5873994 C214.931845,34.6013656 214.568453,34.8546576 214.437358,35.2224988 C214.399205,35.3363748 214.378501,35.4546773 214.375854,35.5739204 L214.375854,37.97883 L213.635535,37.97883 L213.635535,35.6607173 C213.635535,35.036203 213.341686,34.6022184 212.765376,34.6022184 C212.188008,34.6622412 211.754719,35.1208781 211.765376,35.6607173 L211.765376,38 L211.022779,38 L211.034169,35.1484038 Z" id="Path" fill="#000000" fill-rule="nonzero"></path>
            </g>
        </g>
    </g>
</svg>