<?xml version="1.0" encoding="UTF-8"?>
<svg width="17px" height="20px" viewBox="0 0 17 20" version="1.1" xmlns="http://www.w3.org/2000/svg" xmlns:xlink="http://www.w3.org/1999/xlink">
    <title>xxhdpi/user copy</title>
    <g id="Page-1" stroke="none" stroke-width="1" fill="none" fill-rule="evenodd">
        <g id="login" transform="translate(-620.000000, -275.000000)" fill="#346EDF" fill-rule="nonzero">
            <g id="user-copy" transform="translate(620.000000, 275.600000)">
                <path d="M8.25728,1.70530257e-13 C5.62412,1.70530257e-13 3.47164,2.15248 3.47164,4.78564 C3.47164,7.4188 5.62412,9.57128 8.25728,9.57128 C10.89044,9.57128 13.04292,7.4188 13.04292,4.78564 C13.04292,2.15248 10.89044,1.70530257e-13 8.25728,1.70530257e-13 Z" id="Path"></path>
                <path d="M16.4702,13.3956 C16.3448,13.08212 16.17764,12.78956 15.98956,12.51788 C15.02824,11.0968 13.54452,10.1564 11.87268,9.92652 C11.66372,9.90564 11.43384,9.9474 11.26664,10.0728 C10.38892,10.72064 9.34404,11.055 8.25732,11.055 C7.1706,11.055 6.12572,10.72064 5.248,10.0728 C5.0808,9.9474 4.85092,9.88472 4.64196,9.92652 C2.97012,10.1564 1.46548,11.0968 0.52508,12.51788 C0.337,12.78956 0.1698,13.10304 0.04444,13.3956 C-0.01824,13.521 0.00264,13.66728 0.06532,13.79268 C0.23252,14.08524 0.44148,14.37784 0.62956,14.6286 C0.92212,15.02568 1.2356,15.38092 1.59088,15.71528 C1.88344,16.00784 2.2178,16.27952 2.5522,16.5512 C4.20312,17.7842 6.18844,18.432 8.23644,18.432 C10.28444,18.432 12.26976,17.78416 13.92068,16.5512 C14.25504,16.30044 14.5894,16.00784 14.882,15.71528 C15.21636,15.38092 15.55072,15.02564 15.84332,14.6286 C16.05228,14.35692 16.2404,14.08524 16.40756,13.79268 C16.512,13.66728 16.53288,13.52096 16.4702,13.3956 Z" id="Path"></path>
            </g>
        </g>
    </g>
</svg>